<svg width="743" height="41" viewBox="0 0 743 41" fill="none" xmlns="http://www.w3.org/2000/svg">
<path d="M34.24 40V26.112C34.24 24.3947 34.296 22.64 34.408 20.848C34.5573 19.0187 34.7067 17.488 34.856 16.256C35.0053 15.024 35.0987 14.24 35.136 13.904H34.912L27.8 40H18.112L10.944 13.96H10.72C10.7573 14.296 10.8507 15.08 11 16.312C11.1867 17.5067 11.3547 19.0187 11.504 20.848C11.6533 22.64 11.728 24.3947 11.728 26.112V40H0.359985V1.47199H17.832L23.656 23.704H23.88L29.648 1.47199H46.504V40H34.24ZM73.1788 0.799988C79.8241 0.799988 84.9575 2.49865 88.5788 5.89599C92.2001 9.29332 94.0108 14.24 94.0108 20.736C94.0108 27.232 92.2001 32.1787 88.5788 35.576C84.9575 38.9733 79.8241 40.672 73.1788 40.672C66.5335 40.672 61.4001 38.992 57.7788 35.632C54.1948 32.2347 52.4028 27.2693 52.4028 20.736C52.4028 14.2027 54.1948 9.25599 57.7788 5.89599C61.4001 2.49865 66.5335 0.799988 73.1788 0.799988ZM73.1788 10.04C70.5281 10.04 68.5121 10.8427 67.1308 12.448C65.7495 14.0533 65.0588 16.2187 65.0588 18.944V22.528C65.0588 25.2533 65.7495 27.4187 67.1308 29.024C68.5121 30.6293 70.5281 31.432 73.1788 31.432C75.8295 31.432 77.8455 30.6293 79.2268 29.024C80.6455 27.4187 81.3548 25.2533 81.3548 22.528V18.944C81.3548 16.2187 80.6455 14.0533 79.2268 12.448C77.8455 10.8427 75.8295 10.04 73.1788 10.04ZM126.323 1.47199C128.265 1.47199 130.038 1.88266 131.643 2.70399C133.286 3.48799 134.574 4.60799 135.507 6.06399C136.478 7.51999 136.963 9.14399 136.963 10.936C136.963 15.6773 134.817 18.664 130.523 19.896V20.12C135.414 21.24 137.859 24.4507 137.859 29.752C137.859 31.768 137.355 33.56 136.347 35.128C135.377 36.6587 134.033 37.8533 132.315 38.712C130.598 39.5707 128.713 40 126.659 40H100.675V1.47199H126.323ZM113.051 16.48H121.563C122.385 16.48 123.057 16.2 123.579 15.64C124.139 15.0427 124.419 14.3147 124.419 13.456V12.896C124.419 12.0747 124.139 11.384 123.579 10.824C123.019 10.2267 122.347 9.92799 121.563 9.92799H113.051V16.48ZM113.051 31.04H122.459C123.281 31.04 123.953 30.76 124.475 30.2C125.035 29.6027 125.315 28.8747 125.315 28.016V27.456C125.315 26.5973 125.035 25.888 124.475 25.328C123.953 24.7307 123.281 24.432 122.459 24.432H113.051V31.04ZM144.821 40V1.47199H157.197V40H144.821ZM166.027 1.47199H178.403V30.144H198.171V40H166.027V1.47199ZM203.378 1.47199H236.698V10.712H215.754V16.032H233.674V24.88H215.754V30.76H237.09V40H203.378V1.47199ZM280.809 0.799988C286.521 0.799988 291.038 2.23732 294.361 5.11199C297.684 7.94932 299.345 12.0187 299.345 17.32H287.529C287.529 15.08 286.932 13.3067 285.737 12C284.58 10.6933 282.918 10.04 280.753 10.04C278.252 10.04 276.404 10.824 275.209 12.392C274.052 13.96 273.473 16.144 273.473 18.944V22.528C273.473 25.2907 274.052 27.4747 275.209 29.08C276.404 30.648 278.214 31.432 280.641 31.432C283.03 31.432 284.841 30.816 286.073 29.584C287.305 28.352 287.921 26.616 287.921 24.376H299.345C299.345 29.64 297.721 33.672 294.473 36.472C291.262 39.272 286.708 40.672 280.809 40.672C274.238 40.672 269.254 38.992 265.857 35.632C262.497 32.272 260.817 27.3067 260.817 20.736C260.817 14.1653 262.497 9.19999 265.857 5.83999C269.254 2.47999 274.238 0.799988 280.809 0.799988ZM331.843 40L330.219 34.568H316.723L315.099 40H302.443L316.499 1.47199H330.891L344.947 40H331.843ZM319.299 25.944H327.643L323.611 12.224H323.387L319.299 25.944ZM386.181 13.288C386.181 15.64 385.546 17.768 384.277 19.672C383.007 21.576 381.159 22.976 378.733 23.872L387.301 40H373.413L366.581 25.944H361.989V40H349.613V1.47199H373.189C375.951 1.47199 378.303 2.01332 380.245 3.09599C382.223 4.14132 383.698 5.57865 384.669 7.40799C385.677 9.19999 386.181 11.16 386.181 13.288ZM373.581 13.792C373.581 12.784 373.245 11.944 372.573 11.272C371.901 10.6 371.079 10.264 370.109 10.264H361.989V17.376H370.109C371.079 17.376 371.901 17.04 372.573 16.368C373.245 15.6587 373.581 14.8 373.581 13.792ZM428.535 1.47199C442.012 1.47199 448.751 7.89332 448.751 20.736C448.751 33.5787 442.012 40 428.535 40H411.847V1.47199H428.535ZM424.223 30.76H428.311C433.5 30.76 436.095 27.9787 436.095 22.416V19.056C436.095 13.4933 433.5 10.712 428.311 10.712H424.223V30.76ZM455.433 1.47199H488.753V10.712H467.809V16.032H485.729V24.88H467.809V30.76H489.145V40H455.433V1.47199ZM518.023 11.328V40H505.647V11.328H492.991V1.47199H530.623V11.328H518.023ZM558.249 40L556.625 34.568H543.129L541.505 40H528.849L542.905 1.47199H557.297L571.353 40H558.249ZM545.705 25.944H554.049L550.017 12.224H549.793L545.705 25.944ZM576.579 40V1.47199H588.955V40H576.579ZM597.785 1.47199H610.161V30.144H629.929V40H597.785V1.47199ZM635.696 40V1.47199H648.072V40H635.696ZM684.454 40L668.27 21.296V40H656.902V1.47199H667.71L683.894 20.456V1.47199H695.262V40H684.454ZM722.926 0.799988C726.622 0.799988 729.945 1.35999 732.894 2.47999C735.844 3.59999 738.177 5.26132 739.894 7.46399C741.649 9.62932 742.526 12.28 742.526 15.416H730.71C730.71 13.8107 730.001 12.5227 728.582 11.552C727.164 10.544 725.446 10.04 723.43 10.04C720.518 10.04 718.316 10.824 716.822 12.392C715.329 13.9227 714.582 16.1067 714.582 18.944V22.528C714.582 25.3653 715.329 27.568 716.822 29.136C718.316 30.6667 720.518 31.432 723.43 31.432C725.446 31.432 727.164 30.9653 728.582 30.032C730.001 29.0613 730.71 27.8293 730.71 26.336H721.974V18.496H742.526V40H736.142L734.91 36.192C731.401 39.1787 726.809 40.672 721.134 40.672C714.75 40.672 709.953 39.0107 706.742 35.688C703.532 32.328 701.926 27.344 701.926 20.736C701.926 14.2027 703.737 9.25599 707.358 5.89599C711.017 2.49865 716.206 0.799988 722.926 0.799988Z" fill="white"/>
</svg>
