<svg width="7438" height="143" viewBox="0 0 7438 143" fill="none" xmlns="http://www.w3.org/2000/svg">
<mask id="path-1-inside-1_163_165" fill="white">
<path d="M121 140V90.4C121 84.2667 121.2 78 121.6 71.6C122.133 65.0667 122.667 59.6 123.2 55.2C123.733 50.8 124.067 48 124.2 46.8H123.4L98 140H63.4L37.8 47H37C37.1333 48.2 37.4667 51 38 55.4C38.6667 59.6667 39.2667 65.0667 39.8 71.6C40.3333 78 40.6 84.2667 40.6 90.4V140H4.76837e-07V2.4H62.4L83.2 81.8H84L104.6 2.4H164.8V140H121ZM193.667 140V2.4H237.867V140H193.667ZM269.402 2.4H313.602V104.8H384.202V140H269.402V2.4ZM402.8 2.4H521.8V35.4H447V54.4H511V86H447V107H523.2V140H402.8V2.4ZM706.538 140V87.8H657.938V140H613.738V2.4H657.938V52.6H706.538V2.4H750.738V140H706.538ZM782.339 140V2.4H826.539V140H782.339ZM927.273 -9.53674e-06C940.473 -9.53674e-06 952.34 1.99999 962.873 6C973.407 9.99999 981.74 15.9333 987.873 23.8C994.14 31.5333 997.273 41 997.273 52.2H955.073C955.073 46.4667 952.54 41.8667 947.473 38.4C942.407 34.8 936.273 33 929.073 33C918.673 33 910.807 35.8 905.473 41.4C900.14 46.8667 897.473 54.6667 897.473 64.8V77.6C897.473 87.7333 900.14 95.6 905.473 101.2C910.807 106.667 918.673 109.4 929.073 109.4C936.273 109.4 942.407 107.733 947.473 104.4C952.54 100.933 955.073 96.5333 955.073 91.2H923.873V63.2H997.273V140H974.473L970.073 126.4C957.54 137.067 941.14 142.4 920.873 142.4C898.073 142.4 880.94 136.467 869.473 124.6C858.007 112.6 852.273 94.8 852.273 71.2C852.273 47.8667 858.74 30.2 871.673 18.2C884.74 6.06666 903.273 -9.53674e-06 927.273 -9.53674e-06ZM1117.48 140V87.8H1068.88V140H1024.68V2.4H1068.88V52.6H1117.48V2.4H1161.68V140H1117.48ZM1376.08 140V90.4C1376.08 84.2667 1376.28 78 1376.68 71.6C1377.21 65.0667 1377.74 59.6 1378.28 55.2C1378.81 50.8 1379.14 48 1379.28 46.8H1378.48L1353.08 140H1318.48L1292.88 47H1292.08C1292.21 48.2 1292.54 51 1293.08 55.4C1293.74 59.6667 1294.34 65.0667 1294.88 71.6C1295.41 78 1295.68 84.2667 1295.68 90.4V140H1255.08V2.4H1317.48L1338.28 81.8H1339.08L1359.68 2.4H1419.88V140H1376.08ZM1448.75 140V2.4H1492.95V140H1448.75ZM1524.48 2.4H1568.68V104.8H1639.28V140H1524.48V2.4ZM1657.88 2.4H1776.88V35.4H1702.08V54.4H1766.08V86H1702.08V107H1778.28V140H1657.88V2.4ZM1961.62 140V87.8H1913.02V140H1868.82V2.4H1913.02V52.6H1961.62V2.4H2005.82V140H1961.62ZM2037.42 140V2.4H2081.62V140H2037.42ZM2182.35 -9.53674e-06C2195.55 -9.53674e-06 2207.42 1.99999 2217.95 6C2228.48 9.99999 2236.82 15.9333 2242.95 23.8C2249.22 31.5333 2252.35 41 2252.35 52.2H2210.15C2210.15 46.4667 2207.62 41.8667 2202.55 38.4C2197.48 34.8 2191.35 33 2184.15 33C2173.75 33 2165.88 35.8 2160.55 41.4C2155.22 46.8667 2152.55 54.6667 2152.55 64.8V77.6C2152.55 87.7333 2155.22 95.6 2160.55 101.2C2165.88 106.667 2173.75 109.4 2184.15 109.4C2191.35 109.4 2197.48 107.733 2202.55 104.4C2207.62 100.933 2210.15 96.5333 2210.15 91.2H2178.95V63.2H2252.35V140H2229.55L2225.15 126.4C2212.62 137.067 2196.22 142.4 2175.95 142.4C2153.15 142.4 2136.02 136.467 2124.55 124.6C2113.08 112.6 2107.35 94.8 2107.35 71.2C2107.35 47.8667 2113.82 30.2 2126.75 18.2C2139.82 6.06666 2158.35 -9.53674e-06 2182.35 -9.53674e-06ZM2372.55 140V87.8H2323.95V140H2279.75V2.4H2323.95V52.6H2372.55V2.4H2416.75V140H2372.55ZM2631.16 140V90.4C2631.16 84.2667 2631.36 78 2631.76 71.6C2632.29 65.0667 2632.82 59.6 2633.36 55.2C2633.89 50.8 2634.22 48 2634.36 46.8H2633.56L2608.16 140H2573.56L2547.96 47H2547.16C2547.29 48.2 2547.62 51 2548.16 55.4C2548.82 59.6667 2549.42 65.0667 2549.96 71.6C2550.49 78 2550.76 84.2667 2550.76 90.4V140H2510.16V2.4H2572.56L2593.36 81.8H2594.16L2614.76 2.4H2674.96V140H2631.16ZM2703.82 140V2.4H2748.02V140H2703.82ZM2779.56 2.4H2823.76V104.8H2894.36V140H2779.56V2.4ZM2912.96 2.4H3031.96V35.4H2957.16V54.4H3021.16V86H2957.16V107H3033.36V140H2912.96V2.4ZM3216.69 140V87.8H3168.09V140H3123.89V2.4H3168.09V52.6H3216.69V2.4H3260.89V140H3216.69ZM3292.5 140V2.4H3336.7V140H3292.5ZM3437.43 -9.53674e-06C3450.63 -9.53674e-06 3462.5 1.99999 3473.03 6C3483.56 9.99999 3491.9 15.9333 3498.03 23.8C3504.3 31.5333 3507.43 41 3507.43 52.2H3465.23C3465.23 46.4667 3462.7 41.8667 3457.63 38.4C3452.56 34.8 3446.43 33 3439.23 33C3428.83 33 3420.96 35.8 3415.63 41.4C3410.3 46.8667 3407.63 54.6667 3407.63 64.8V77.6C3407.63 87.7333 3410.3 95.6 3415.63 101.2C3420.96 106.667 3428.83 109.4 3439.23 109.4C3446.43 109.4 3452.56 107.733 3457.63 104.4C3462.7 100.933 3465.23 96.5333 3465.23 91.2H3434.03V63.2H3507.43V140H3484.63L3480.23 126.4C3467.7 137.067 3451.3 142.4 3431.03 142.4C3408.23 142.4 3391.1 136.467 3379.63 124.6C3368.16 112.6 3362.43 94.8 3362.43 71.2C3362.43 47.8667 3368.9 30.2 3381.83 18.2C3394.9 6.06666 3413.43 -9.53674e-06 3437.43 -9.53674e-06ZM3627.63 140V87.8H3579.03V140H3534.83V2.4H3579.03V52.6H3627.63V2.4H3671.83V140H3627.63ZM3886.23 140V90.4C3886.23 84.2667 3886.43 78 3886.83 71.6C3887.37 65.0667 3887.9 59.6 3888.43 55.2C3888.97 50.8 3889.3 48 3889.43 46.8H3888.63L3863.23 140H3828.63L3803.03 47H3802.23C3802.37 48.2 3802.7 51 3803.23 55.4C3803.9 59.6667 3804.5 65.0667 3805.03 71.6C3805.57 78 3805.83 84.2667 3805.83 90.4V140H3765.23V2.4H3827.63L3848.43 81.8H3849.23L3869.83 2.4H3930.03V140H3886.23ZM3958.9 140V2.4H4003.1V140H3958.9ZM4034.64 2.4H4078.84V104.8H4149.44V140H4034.64V2.4ZM4168.03 2.4H4287.03V35.4H4212.23V54.4H4276.23V86H4212.23V107H4288.43V140H4168.03V2.4ZM4471.77 140V87.8H4423.17V140H4378.97V2.4H4423.17V52.6H4471.77V2.4H4515.97V140H4471.77ZM4547.57 140V2.4H4591.77V140H4547.57ZM4692.51 -9.53674e-06C4705.71 -9.53674e-06 4717.57 1.99999 4728.11 6C4738.64 9.99999 4746.97 15.9333 4753.11 23.8C4759.37 31.5333 4762.51 41 4762.51 52.2H4720.31C4720.31 46.4667 4717.77 41.8667 4712.71 38.4C4707.64 34.8 4701.51 33 4694.31 33C4683.91 33 4676.04 35.8 4670.71 41.4C4665.37 46.8667 4662.71 54.6667 4662.71 64.8V77.6C4662.71 87.7333 4665.37 95.6 4670.71 101.2C4676.04 106.667 4683.91 109.4 4694.31 109.4C4701.51 109.4 4707.64 107.733 4712.71 104.4C4717.77 100.933 4720.31 96.5333 4720.31 91.2H4689.11V63.2H4762.51V140H4739.71L4735.31 126.4C4722.77 137.067 4706.37 142.4 4686.11 142.4C4663.31 142.4 4646.17 136.467 4634.71 124.6C4623.24 112.6 4617.51 94.8 4617.51 71.2C4617.51 47.8667 4623.97 30.2 4636.91 18.2C4649.97 6.06666 4668.51 -9.53674e-06 4692.51 -9.53674e-06ZM4882.71 140V87.8H4834.11V140H4789.91V2.4H4834.11V52.6H4882.71V2.4H4926.91V140H4882.71ZM5141.31 140V90.4C5141.31 84.2667 5141.51 78 5141.91 71.6C5142.45 65.0667 5142.98 59.6 5143.51 55.2C5144.05 50.8 5144.38 48 5144.51 46.8H5143.71L5118.31 140H5083.71L5058.11 47H5057.31C5057.45 48.2 5057.78 51 5058.31 55.4C5058.98 59.6667 5059.58 65.0667 5060.11 71.6C5060.65 78 5060.91 84.2667 5060.91 90.4V140H5020.31V2.4H5082.71L5103.51 81.8H5104.31L5124.91 2.4H5185.11V140H5141.31ZM5213.98 140V2.4H5258.18V140H5213.98ZM5289.71 2.4H5333.91V104.8H5404.51V140H5289.71V2.4ZM5423.11 2.4H5542.11V35.4H5467.31V54.4H5531.31V86H5467.31V107H5543.51V140H5423.11V2.4ZM5726.85 140V87.8H5678.25V140H5634.05V2.4H5678.25V52.6H5726.85V2.4H5771.05V140H5726.85ZM5802.65 140V2.4H5846.85V140H5802.65ZM5947.59 -9.53674e-06C5960.79 -9.53674e-06 5972.65 1.99999 5983.19 6C5993.72 9.99999 6002.05 15.9333 6008.19 23.8C6014.45 31.5333 6017.59 41 6017.59 52.2H5975.39C5975.39 46.4667 5972.85 41.8667 5967.79 38.4C5962.72 34.8 5956.59 33 5949.39 33C5938.99 33 5931.12 35.8 5925.79 41.4C5920.45 46.8667 5917.79 54.6667 5917.79 64.8V77.6C5917.79 87.7333 5920.45 95.6 5925.79 101.2C5931.12 106.667 5938.99 109.4 5949.39 109.4C5956.59 109.4 5962.72 107.733 5967.79 104.4C5972.85 100.933 5975.39 96.5333 5975.39 91.2H5944.19V63.2H6017.59V140H5994.79L5990.39 126.4C5977.85 137.067 5961.45 142.4 5941.19 142.4C5918.39 142.4 5901.25 136.467 5889.79 124.6C5878.32 112.6 5872.59 94.8 5872.59 71.2C5872.59 47.8667 5879.05 30.2 5891.99 18.2C5905.05 6.06666 5923.59 -9.53674e-06 5947.59 -9.53674e-06ZM6137.79 140V87.8H6089.19V140H6044.99V2.4H6089.19V52.6H6137.79V2.4H6181.99V140H6137.79ZM6396.39 140V90.4C6396.39 84.2667 6396.59 78 6396.99 71.6C6397.52 65.0667 6398.06 59.6 6398.59 55.2C6399.12 50.8 6399.46 48 6399.59 46.8H6398.79L6373.39 140H6338.79L6313.19 47H6312.39C6312.52 48.2 6312.86 51 6313.39 55.4C6314.06 59.6667 6314.66 65.0667 6315.19 71.6C6315.72 78 6315.99 84.2667 6315.99 90.4V140H6275.39V2.4H6337.79L6358.59 81.8H6359.39L6379.99 2.4H6440.19V140H6396.39ZM6469.06 140V2.4H6513.26V140H6469.06ZM6544.79 2.4H6588.99V104.8H6659.59V140H6544.79V2.4ZM6678.19 2.4H6797.19V35.4H6722.39V54.4H6786.39V86H6722.39V107H6798.59V140H6678.19V2.4ZM6981.93 140V87.8H6933.33V140H6889.13V2.4H6933.33V52.6H6981.93V2.4H7026.13V140H6981.93ZM7057.73 140V2.4H7101.93V140H7057.73ZM7202.66 -9.53674e-06C7215.86 -9.53674e-06 7227.73 1.99999 7238.26 6C7248.8 9.99999 7257.13 15.9333 7263.26 23.8C7269.53 31.5333 7272.66 41 7272.66 52.2H7230.46C7230.46 46.4667 7227.93 41.8667 7222.86 38.4C7217.8 34.8 7211.66 33 7204.46 33C7194.06 33 7186.2 35.8 7180.86 41.4C7175.53 46.8667 7172.86 54.6667 7172.86 64.8V77.6C7172.86 87.7333 7175.53 95.6 7180.86 101.2C7186.2 106.667 7194.06 109.4 7204.46 109.4C7211.66 109.4 7217.8 107.733 7222.86 104.4C7227.93 100.933 7230.46 96.5333 7230.46 91.2H7199.26V63.2H7272.66V140H7249.86L7245.46 126.4C7232.93 137.067 7216.53 142.4 7196.26 142.4C7173.46 142.4 7156.33 136.467 7144.86 124.6C7133.4 112.6 7127.66 94.8 7127.66 71.2C7127.66 47.8667 7134.13 30.2 7147.06 18.2C7160.13 6.06666 7178.66 -9.53674e-06 7202.66 -9.53674e-06ZM7392.87 140V87.8H7344.27V140H7300.07V2.4H7344.27V52.6H7392.87V2.4H7437.07V140H7392.87Z"/>
</mask>
<path d="M121 140H119V142H121V140ZM121.6 71.6L119.607 71.4373L119.605 71.4562L119.604 71.4752L121.6 71.6ZM123.2 55.2L125.185 55.4407L125.185 55.4407L123.2 55.2ZM124.2 46.8L126.188 47.0209L126.435 44.8H124.2V46.8ZM123.4 46.8V44.8H121.872L121.47 46.2741L123.4 46.8ZM98 140V142H99.5279L99.9296 140.526L98 140ZM63.4 140L61.4717 140.531L61.8761 142H63.4V140ZM37.8 47L39.7283 46.4692L39.3239 45H37.8V47ZM37 47V45H34.7655L35.0122 47.2209L37 47ZM38 55.4L36.0145 55.6407L36.0187 55.6748L36.024 55.7088L38 55.4ZM39.8 71.6L37.8066 71.7627L37.8069 71.7661L39.8 71.6ZM40.6 140V142H42.6V140H40.6ZM4.76837e-07 140H-2V142H4.76837e-07V140ZM4.76837e-07 2.4V0.399995H-2V2.4H4.76837e-07ZM62.4 2.4L64.3347 1.89317L63.9436 0.399995H62.4V2.4ZM83.2 81.8L81.2653 82.3068L81.6564 83.8H83.2V81.8ZM84 81.8V83.8H85.5473L85.9359 82.3023L84 81.8ZM104.6 2.4V0.399995H103.053L102.664 1.89773L104.6 2.4ZM164.8 2.4H166.8V0.399995H164.8V2.4ZM164.8 140V142H166.8V140H164.8ZM123 140V90.4H119V140H123ZM123 90.4C123 84.3101 123.199 78.0851 123.596 71.7248L119.604 71.4752C119.201 77.9149 119 84.2232 119 90.4H123ZM123.593 71.7627C124.125 65.2444 124.656 59.8057 125.185 55.4407L121.215 54.9593C120.677 59.3943 120.141 64.8889 119.607 71.4373L123.593 71.7627ZM125.185 55.4407C125.718 51.0438 126.053 48.2329 126.188 47.0209L122.212 46.5791C122.08 47.7671 121.748 50.5562 121.215 54.9593L125.185 55.4407ZM124.2 44.8H123.4V48.8H124.2V44.8ZM121.47 46.2741L96.0704 139.474L99.9296 140.526L125.33 47.3259L121.47 46.2741ZM98 138H63.4V142H98V138ZM65.3283 139.469L39.7283 46.4692L35.8717 47.5308L61.4717 140.531L65.3283 139.469ZM37.8 45H37V49H37.8V45ZM35.0122 47.2209C35.1469 48.4329 35.4816 51.2438 36.0145 55.6407L39.9855 55.1593C39.4518 50.7562 39.1198 47.9671 38.9878 46.7791L35.0122 47.2209ZM36.024 55.7088C36.6803 59.9091 37.2755 65.2561 37.8066 71.7627L41.7934 71.4373C41.2579 64.8773 40.6531 59.4243 39.976 55.0912L36.024 55.7088ZM37.8069 71.7661C38.3359 78.1134 38.6 84.3246 38.6 90.4H42.6C42.6 84.2087 42.3308 77.8866 41.7931 71.4339L37.8069 71.7661ZM38.6 90.4V140H42.6V90.4H38.6ZM40.6 138H4.76837e-07V142H40.6V138ZM2 140V2.4H-2V140H2ZM4.76837e-07 4.4H62.4V0.399995H4.76837e-07V4.4ZM60.4653 2.90682L81.2653 82.3068L85.1347 81.2932L64.3347 1.89317L60.4653 2.90682ZM83.2 83.8H84V79.8H83.2V83.8ZM85.9359 82.3023L106.536 2.90226L102.664 1.89773L82.0641 81.2977L85.9359 82.3023ZM104.6 4.4H164.8V0.399995H104.6V4.4ZM162.8 2.4V140H166.8V2.4H162.8ZM164.8 138H121V142H164.8V138ZM193.667 140H191.667V142H193.667V140ZM193.667 2.4V0.399995H191.667V2.4H193.667ZM237.867 2.4H239.867V0.399995H237.867V2.4ZM237.867 140V142H239.867V140H237.867ZM195.667 140V2.4H191.667V140H195.667ZM193.667 4.4H237.867V0.399995H193.667V4.4ZM235.867 2.4V140H239.867V2.4H235.867ZM237.867 138H193.667V142H237.867V138ZM269.402 2.4V0.399995H267.402V2.4H269.402ZM313.602 2.4H315.602V0.399995H313.602V2.4ZM313.602 104.8H311.602V106.8H313.602V104.8ZM384.202 104.8H386.202V102.8H384.202V104.8ZM384.202 140V142H386.202V140H384.202ZM269.402 140H267.402V142H269.402V140ZM269.402 4.4H313.602V0.399995H269.402V4.4ZM311.602 2.4V104.8H315.602V2.4H311.602ZM313.602 106.8H384.202V102.8H313.602V106.8ZM382.202 104.8V140H386.202V104.8H382.202ZM384.202 138H269.402V142H384.202V138ZM271.402 140V2.4H267.402V140H271.402ZM402.8 2.4V0.399995H400.8V2.4H402.8ZM521.8 2.4H523.8V0.399995H521.8V2.4ZM521.8 35.4V37.4H523.8V35.4H521.8ZM447 35.4V33.4H445V35.4H447ZM447 54.4H445V56.4H447V54.4ZM511 54.4H513V52.4H511V54.4ZM511 86V88H513V86H511ZM447 86V84H445V86H447ZM447 107H445V109H447V107ZM523.2 107H525.2V105H523.2V107ZM523.2 140V142H525.2V140H523.2ZM402.8 140H400.8V142H402.8V140ZM402.8 4.4H521.8V0.399995H402.8V4.4ZM519.8 2.4V35.4H523.8V2.4H519.8ZM521.8 33.4H447V37.4H521.8V33.4ZM445 35.4V54.4H449V35.4H445ZM447 56.4H511V52.4H447V56.4ZM509 54.4V86H513V54.4H509ZM511 84H447V88H511V84ZM445 86V107H449V86H445ZM447 109H523.2V105H447V109ZM521.2 107V140H525.2V107H521.2ZM523.2 138H402.8V142H523.2V138ZM404.8 140V2.4H400.8V140H404.8ZM706.538 140H704.538V142H706.538V140ZM706.538 87.8H708.538V85.8H706.538V87.8ZM657.938 87.8V85.8H655.938V87.8H657.938ZM657.938 140V142H659.938V140H657.938ZM613.738 140H611.738V142H613.738V140ZM613.738 2.4V0.399995H611.738V2.4H613.738ZM657.938 2.4H659.938V0.399995H657.938V2.4ZM657.938 52.6H655.938V54.6H657.938V52.6ZM706.538 52.6V54.6H708.538V52.6H706.538ZM706.538 2.4V0.399995H704.538V2.4H706.538ZM750.738 2.4H752.738V0.399995H750.738V2.4ZM750.738 140V142H752.738V140H750.738ZM708.538 140V87.8H704.538V140H708.538ZM706.538 85.8H657.938V89.8H706.538V85.8ZM655.938 87.8V140H659.938V87.8H655.938ZM657.938 138H613.738V142H657.938V138ZM615.738 140V2.4H611.738V140H615.738ZM613.738 4.4H657.938V0.399995H613.738V4.4ZM655.938 2.4V52.6H659.938V2.4H655.938ZM657.938 54.6H706.538V50.6H657.938V54.6ZM708.538 52.6V2.4H704.538V52.6H708.538ZM706.538 4.4H750.738V0.399995H706.538V4.4ZM748.738 2.4V140H752.738V2.4H748.738ZM750.738 138H706.538V142H750.738V138ZM782.339 140H780.339V142H782.339V140ZM782.339 2.4V0.399995H780.339V2.4H782.339ZM826.539 2.4H828.539V0.399995H826.539V2.4ZM826.539 140V142H828.539V140H826.539ZM784.339 140V2.4H780.339V140H784.339ZM782.339 4.4H826.539V0.399995H782.339V4.4ZM824.539 2.4V140H828.539V2.4H824.539ZM826.539 138H782.339V142H826.539V138ZM962.873 6L962.163 7.86972L962.163 7.86972L962.873 6ZM987.873 23.8L986.296 25.0297L986.308 25.0446L986.32 25.0592L987.873 23.8ZM997.273 52.2V54.2H999.273V52.2H997.273ZM955.073 52.2H953.073V54.2H955.073V52.2ZM947.473 38.4L946.315 40.0304L946.329 40.0406L946.344 40.0506L947.473 38.4ZM905.473 41.4L906.905 42.7966L906.913 42.788L906.922 42.7793L905.473 41.4ZM905.473 101.2L904.025 102.579L904.033 102.588L904.042 102.597L905.473 101.2ZM947.473 104.4L948.573 106.071L948.588 106.061L948.603 106.051L947.473 104.4ZM955.073 91.2H957.073V89.2H955.073V91.2ZM923.873 91.2H921.873V93.2H923.873V91.2ZM923.873 63.2V61.2H921.873V63.2H923.873ZM997.273 63.2H999.273V61.2H997.273V63.2ZM997.273 140V142H999.273V140H997.273ZM974.473 140L972.571 140.616L973.018 142H974.473V140ZM970.073 126.4L971.976 125.784L971.055 122.938L968.777 124.877L970.073 126.4ZM869.473 124.6L868.027 125.982L868.035 125.99L869.473 124.6ZM871.673 18.2L873.034 19.6661L873.034 19.6656L871.673 18.2ZM927.273 1.99999C940.272 1.99999 951.892 3.96925 962.163 7.86972L963.583 4.13027C952.788 0.0307389 940.675 -2.00001 927.273 -2.00001V1.99999ZM962.163 7.86972C972.4 11.757 980.416 17.4878 986.296 25.0297L989.451 22.5703C983.064 14.3789 974.414 8.24298 963.583 4.13027L962.163 7.86972ZM986.32 25.0592C992.262 32.3918 995.273 41.3977 995.273 52.2H999.273C999.273 40.6023 996.019 30.6749 989.427 22.5408L986.32 25.0592ZM997.273 50.2H955.073V54.2H997.273V50.2ZM957.073 52.2C957.073 45.7531 954.169 40.5576 948.603 36.7494L946.344 40.0506C950.912 43.1757 953.073 47.1803 953.073 52.2H957.073ZM948.632 36.7696C943.175 32.8926 936.621 31 929.073 31V35C935.926 35 941.638 36.7074 946.315 40.0304L948.632 36.7696ZM929.073 31C918.322 31 909.853 33.9019 904.025 40.0207L906.922 42.7793C911.761 37.6981 919.025 35 929.073 35V31ZM904.042 40.0033C898.237 45.9529 895.473 54.3206 895.473 64.8H899.473C899.473 55.0127 902.043 47.7804 906.905 42.7966L904.042 40.0033ZM895.473 64.8V77.6H899.473V64.8H895.473ZM895.473 77.6C895.473 88.0824 898.239 96.5033 904.025 102.579L906.922 99.8207C902.042 94.6967 899.473 87.3842 899.473 77.6H895.473ZM904.042 102.597C909.872 108.572 918.335 111.4 929.073 111.4V107.4C919.012 107.4 911.742 104.761 906.905 99.8034L904.042 102.597ZM929.073 111.4C936.59 111.4 943.123 109.656 948.573 106.071L946.374 102.729C941.691 105.81 935.957 107.4 929.073 107.4V111.4ZM948.603 106.051C954.119 102.276 957.073 97.3012 957.073 91.2H953.073C953.073 95.7655 950.961 99.5903 946.344 102.749L948.603 106.051ZM955.073 89.2H923.873V93.2H955.073V89.2ZM925.873 91.2V63.2H921.873V91.2H925.873ZM923.873 65.2H997.273V61.2H923.873V65.2ZM995.273 63.2V140H999.273V63.2H995.273ZM997.273 138H974.473V142H997.273V138ZM976.376 139.384L971.976 125.784L968.171 127.016L972.571 140.616L976.376 139.384ZM968.777 124.877C956.684 135.169 940.779 140.4 920.873 140.4V144.4C941.501 144.4 958.396 138.964 971.37 127.923L968.777 124.877ZM920.873 140.4C898.404 140.4 881.876 134.557 870.912 123.21L868.035 125.99C880.004 138.376 897.743 144.4 920.873 144.4V140.4ZM870.919 123.218C859.935 111.723 854.273 94.5029 854.273 71.2H850.273C850.273 95.0971 856.079 113.477 868.027 125.982L870.919 123.218ZM854.273 71.2C854.273 48.2349 860.628 31.1763 873.034 19.6661L870.313 16.7339C856.852 29.2237 850.273 47.4984 850.273 71.2H854.273ZM873.034 19.6656C885.619 7.98015 903.6 1.99999 927.273 1.99999V-2.00001C902.946 -2.00001 883.862 4.15317 870.313 16.7344L873.034 19.6656ZM1117.48 140H1115.48V142H1117.48V140ZM1117.48 87.8H1119.48V85.8H1117.48V87.8ZM1068.88 87.8V85.8H1066.88V87.8H1068.88ZM1068.88 140V142H1070.88V140H1068.88ZM1024.68 140H1022.68V142H1024.68V140ZM1024.68 2.4V0.399995H1022.68V2.4H1024.68ZM1068.88 2.4H1070.88V0.399995H1068.88V2.4ZM1068.88 52.6H1066.88V54.6H1068.88V52.6ZM1117.48 52.6V54.6H1119.48V52.6H1117.48ZM1117.48 2.4V0.399995H1115.48V2.4H1117.48ZM1161.68 2.4H1163.68V0.399995H1161.68V2.4ZM1161.68 140V142H1163.68V140H1161.68ZM1119.48 140V87.8H1115.48V140H1119.48ZM1117.48 85.8H1068.88V89.8H1117.48V85.8ZM1066.88 87.8V140H1070.88V87.8H1066.88ZM1068.88 138H1024.68V142H1068.88V138ZM1026.68 140V2.4H1022.68V140H1026.68ZM1024.68 4.4H1068.88V0.399995H1024.68V4.4ZM1066.88 2.4V52.6H1070.88V2.4H1066.88ZM1068.88 54.6H1117.48V50.6H1068.88V54.6ZM1119.48 52.6V2.4H1115.48V52.6H1119.48ZM1117.48 4.4H1161.68V0.399995H1117.48V4.4ZM1159.68 2.4V140H1163.68V2.4H1159.68ZM1161.68 138H1117.48V142H1161.68V138ZM1376.08 140H1374.08V142H1376.08V140ZM1376.68 71.6L1374.68 71.4373L1374.68 71.4562L1374.68 71.4752L1376.68 71.6ZM1378.28 55.2L1380.26 55.4407L1380.26 55.4407L1378.28 55.2ZM1379.28 46.8L1381.27 47.0209L1381.51 44.8H1379.28V46.8ZM1378.48 46.8V44.8H1376.95L1376.55 46.2741L1378.48 46.8ZM1353.08 140V142H1354.61L1355.01 140.526L1353.08 140ZM1318.48 140L1316.55 140.531L1316.95 142H1318.48V140ZM1292.88 47L1294.81 46.4692L1294.4 45H1292.88V47ZM1292.08 47V45H1289.84L1290.09 47.2209L1292.08 47ZM1293.08 55.4L1291.09 55.6407L1291.1 55.6748L1291.1 55.7088L1293.08 55.4ZM1294.88 71.6L1292.88 71.7627L1292.89 71.7661L1294.88 71.6ZM1295.68 140V142H1297.68V140H1295.68ZM1255.08 140H1253.08V142H1255.08V140ZM1255.08 2.4V0.399995H1253.08V2.4H1255.08ZM1317.48 2.4L1319.41 1.89317L1319.02 0.399995H1317.48V2.4ZM1338.28 81.8L1336.34 82.3068L1336.73 83.8H1338.28V81.8ZM1339.08 81.8V83.8H1340.63L1341.01 82.3023L1339.08 81.8ZM1359.68 2.4V0.399995H1358.13L1357.74 1.89773L1359.68 2.4ZM1419.88 2.4H1421.88V0.399995H1419.88V2.4ZM1419.88 140V142H1421.88V140H1419.88ZM1378.08 140V90.4H1374.08V140H1378.08ZM1378.08 90.4C1378.08 84.3101 1378.28 78.0851 1378.67 71.7248L1374.68 71.4752C1374.28 77.9149 1374.08 84.2232 1374.08 90.4H1378.08ZM1378.67 71.7627C1379.2 65.2444 1379.73 59.8057 1380.26 55.4407L1376.29 54.9593C1375.76 59.3943 1375.22 64.8889 1374.68 71.4373L1378.67 71.7627ZM1380.26 55.4407C1380.8 51.0438 1381.13 48.2329 1381.27 47.0209L1377.29 46.5791C1377.16 47.7671 1376.83 50.5562 1376.29 54.9593L1380.26 55.4407ZM1379.28 44.8H1378.48V48.8H1379.28V44.8ZM1376.55 46.2741L1351.15 139.474L1355.01 140.526L1380.41 47.3259L1376.55 46.2741ZM1353.08 138H1318.48V142H1353.08V138ZM1320.41 139.469L1294.81 46.4692L1290.95 47.5308L1316.55 140.531L1320.41 139.469ZM1292.88 45H1292.08V49H1292.88V45ZM1290.09 47.2209C1290.23 48.4329 1290.56 51.2438 1291.09 55.6407L1295.06 55.1593C1294.53 50.7562 1294.2 47.9671 1294.07 46.7791L1290.09 47.2209ZM1291.1 55.7088C1291.76 59.9091 1292.35 65.2561 1292.88 71.7627L1296.87 71.4373C1296.34 64.8773 1295.73 59.4243 1295.05 55.0912L1291.1 55.7088ZM1292.89 71.7661C1293.41 78.1134 1293.68 84.3246 1293.68 90.4H1297.68C1297.68 84.2087 1297.41 77.8866 1296.87 71.4339L1292.89 71.7661ZM1293.68 90.4V140H1297.68V90.4H1293.68ZM1295.68 138H1255.08V142H1295.68V138ZM1257.08 140V2.4H1253.08V140H1257.08ZM1255.08 4.4H1317.48V0.399995H1255.08V4.4ZM1315.54 2.90682L1336.34 82.3068L1340.21 81.2932L1319.41 1.89317L1315.54 2.90682ZM1338.28 83.8H1339.08V79.8H1338.28V83.8ZM1341.01 82.3023L1361.61 2.90226L1357.74 1.89773L1337.14 81.2977L1341.01 82.3023ZM1359.68 4.4H1419.88V0.399995H1359.68V4.4ZM1417.88 2.4V140H1421.88V2.4H1417.88ZM1419.88 138H1376.08V142H1419.88V138ZM1448.75 140H1446.75V142H1448.75V140ZM1448.75 2.4V0.399995H1446.75V2.4H1448.75ZM1492.95 2.4H1494.95V0.399995H1492.95V2.4ZM1492.95 140V142H1494.95V140H1492.95ZM1450.75 140V2.4H1446.75V140H1450.75ZM1448.75 4.4H1492.95V0.399995H1448.75V4.4ZM1490.95 2.4V140H1494.95V2.4H1490.95ZM1492.95 138H1448.75V142H1492.95V138ZM1524.48 2.4V0.399995H1522.48V2.4H1524.48ZM1568.68 2.4H1570.68V0.399995H1568.68V2.4ZM1568.68 104.8H1566.68V106.8H1568.68V104.8ZM1639.28 104.8H1641.28V102.8H1639.28V104.8ZM1639.28 140V142H1641.28V140H1639.28ZM1524.48 140H1522.48V142H1524.48V140ZM1524.48 4.4H1568.68V0.399995H1524.48V4.4ZM1566.68 2.4V104.8H1570.68V2.4H1566.68ZM1568.68 106.8H1639.28V102.8H1568.68V106.8ZM1637.28 104.8V140H1641.28V104.8H1637.28ZM1639.28 138H1524.48V142H1639.28V138ZM1526.48 140V2.4H1522.48V140H1526.48ZM1657.88 2.4V0.399995H1655.88V2.4H1657.88ZM1776.88 2.4H1778.88V0.399995H1776.88V2.4ZM1776.88 35.4V37.4H1778.88V35.4H1776.88ZM1702.08 35.4V33.4H1700.08V35.4H1702.08ZM1702.08 54.4H1700.08V56.4H1702.08V54.4ZM1766.08 54.4H1768.08V52.4H1766.08V54.4ZM1766.08 86V88H1768.08V86H1766.08ZM1702.08 86V84H1700.08V86H1702.08ZM1702.08 107H1700.08V109H1702.08V107ZM1778.28 107H1780.28V105H1778.28V107ZM1778.28 140V142H1780.28V140H1778.28ZM1657.88 140H1655.88V142H1657.88V140ZM1657.88 4.4H1776.88V0.399995H1657.88V4.4ZM1774.88 2.4V35.4H1778.88V2.4H1774.88ZM1776.88 33.4H1702.08V37.4H1776.88V33.4ZM1700.08 35.4V54.4H1704.08V35.4H1700.08ZM1702.08 56.4H1766.08V52.4H1702.08V56.4ZM1764.08 54.4V86H1768.08V54.4H1764.08ZM1766.08 84H1702.08V88H1766.08V84ZM1700.08 86V107H1704.08V86H1700.08ZM1702.08 109H1778.28V105H1702.08V109ZM1776.28 107V140H1780.28V107H1776.28ZM1778.28 138H1657.88V142H1778.28V138ZM1659.88 140V2.4H1655.88V140H1659.88ZM1961.62 140H1959.62V142H1961.62V140ZM1961.62 87.8H1963.62V85.8H1961.62V87.8ZM1913.02 87.8V85.8H1911.02V87.8H1913.02ZM1913.02 140V142H1915.02V140H1913.02ZM1868.82 140H1866.82V142H1868.82V140ZM1868.82 2.4V0.399995H1866.82V2.4H1868.82ZM1913.02 2.4H1915.02V0.399995H1913.02V2.4ZM1913.02 52.6H1911.02V54.6H1913.02V52.6ZM1961.62 52.6V54.6H1963.62V52.6H1961.62ZM1961.62 2.4V0.399995H1959.62V2.4H1961.62ZM2005.82 2.4H2007.82V0.399995H2005.82V2.4ZM2005.82 140V142H2007.82V140H2005.82ZM1963.62 140V87.8H1959.62V140H1963.62ZM1961.62 85.8H1913.02V89.8H1961.62V85.8ZM1911.02 87.8V140H1915.02V87.8H1911.02ZM1913.02 138H1868.82V142H1913.02V138ZM1870.82 140V2.4H1866.82V140H1870.82ZM1868.82 4.4H1913.02V0.399995H1868.82V4.4ZM1911.02 2.4V52.6H1915.02V2.4H1911.02ZM1913.02 54.6H1961.62V50.6H1913.02V54.6ZM1963.62 52.6V2.4H1959.62V52.6H1963.62ZM1961.62 4.4H2005.82V0.399995H1961.62V4.4ZM2003.82 2.4V140H2007.82V2.4H2003.82ZM2005.82 138H1961.62V142H2005.82V138ZM2037.42 140H2035.42V142H2037.42V140ZM2037.42 2.4V0.399995H2035.42V2.4H2037.42ZM2081.62 2.4H2083.62V0.399995H2081.62V2.4ZM2081.62 140V142H2083.62V140H2081.62ZM2039.42 140V2.4H2035.42V140H2039.42ZM2037.42 4.4H2081.62V0.399995H2037.42V4.4ZM2079.62 2.4V140H2083.62V2.4H2079.62ZM2081.62 138H2037.42V142H2081.62V138ZM2217.95 6L2217.24 7.86972L2217.24 7.86972L2217.95 6ZM2242.95 23.8L2241.37 25.0297L2241.39 25.0446L2241.4 25.0592L2242.95 23.8ZM2252.35 52.2V54.2H2254.35V52.2H2252.35ZM2210.15 52.2H2208.15V54.2H2210.15V52.2ZM2202.55 38.4L2201.39 40.0304L2201.41 40.0406L2201.42 40.0506L2202.55 38.4ZM2160.55 41.4L2161.98 42.7966L2161.99 42.788L2162 42.7793L2160.55 41.4ZM2160.55 101.2L2159.1 102.579L2159.11 102.588L2159.12 102.597L2160.55 101.2ZM2202.55 104.4L2203.65 106.071L2203.67 106.061L2203.68 106.051L2202.55 104.4ZM2210.15 91.2H2212.15V89.2H2210.15V91.2ZM2178.95 91.2H2176.95V93.2H2178.95V91.2ZM2178.95 63.2V61.2H2176.95V63.2H2178.95ZM2252.35 63.2H2254.35V61.2H2252.35V63.2ZM2252.35 140V142H2254.35V140H2252.35ZM2229.55 140L2227.65 140.616L2228.1 142H2229.55V140ZM2225.15 126.4L2227.05 125.784L2226.13 122.938L2223.86 124.877L2225.15 126.4ZM2124.55 124.6L2123.11 125.982L2123.11 125.99L2124.55 124.6ZM2126.75 18.2L2128.11 19.6661L2128.11 19.6656L2126.75 18.2ZM2182.35 1.99999C2195.35 1.99999 2206.97 3.96925 2217.24 7.86972L2218.66 4.13027C2207.87 0.0307389 2195.75 -2.00001 2182.35 -2.00001V1.99999ZM2217.24 7.86972C2227.48 11.757 2235.49 17.4878 2241.37 25.0297L2244.53 22.5703C2238.14 14.3789 2229.49 8.24298 2218.66 4.13027L2217.24 7.86972ZM2241.4 25.0592C2247.34 32.3918 2250.35 41.3977 2250.35 52.2H2254.35C2254.35 40.6023 2251.1 30.6749 2244.51 22.5408L2241.4 25.0592ZM2252.35 50.2H2210.15V54.2H2252.35V50.2ZM2212.15 52.2C2212.15 45.7531 2209.25 40.5576 2203.68 36.7494L2201.42 40.0506C2205.99 43.1757 2208.15 47.1803 2208.15 52.2H2212.15ZM2203.71 36.7696C2198.25 32.8926 2191.7 31 2184.15 31V35C2191 35 2196.72 36.7074 2201.39 40.0304L2203.71 36.7696ZM2184.15 31C2173.4 31 2164.93 33.9019 2159.1 40.0207L2162 42.7793C2166.84 37.6981 2174.1 35 2184.15 35V31ZM2159.12 40.0033C2153.32 45.9529 2150.55 54.3206 2150.55 64.8H2154.55C2154.55 55.0127 2157.12 47.7804 2161.98 42.7966L2159.12 40.0033ZM2150.55 64.8V77.6H2154.55V64.8H2150.55ZM2150.55 77.6C2150.55 88.0824 2153.32 96.5033 2159.1 102.579L2162 99.8207C2157.12 94.6967 2154.55 87.3842 2154.55 77.6H2150.55ZM2159.12 102.597C2164.95 108.572 2173.41 111.4 2184.15 111.4V107.4C2174.09 107.4 2166.82 104.761 2161.98 99.8034L2159.12 102.597ZM2184.15 111.4C2191.67 111.4 2198.2 109.656 2203.65 106.071L2201.45 102.729C2196.77 105.81 2191.04 107.4 2184.15 107.4V111.4ZM2203.68 106.051C2209.2 102.276 2212.15 97.3012 2212.15 91.2H2208.15C2208.15 95.7655 2206.04 99.5903 2201.42 102.749L2203.68 106.051ZM2210.15 89.2H2178.95V93.2H2210.15V89.2ZM2180.95 91.2V63.2H2176.95V91.2H2180.95ZM2178.95 65.2H2252.35V61.2H2178.95V65.2ZM2250.35 63.2V140H2254.35V63.2H2250.35ZM2252.35 138H2229.55V142H2252.35V138ZM2231.45 139.384L2227.05 125.784L2223.25 127.016L2227.65 140.616L2231.45 139.384ZM2223.86 124.877C2211.76 135.169 2195.86 140.4 2175.95 140.4V144.4C2196.58 144.4 2213.47 138.964 2226.45 127.923L2223.86 124.877ZM2175.95 140.4C2153.48 140.4 2136.95 134.557 2125.99 123.21L2123.11 125.99C2135.08 138.376 2152.82 144.4 2175.95 144.4V140.4ZM2126 123.218C2115.01 111.723 2109.35 94.5029 2109.35 71.2H2105.35C2105.35 95.0971 2111.16 113.477 2123.11 125.982L2126 123.218ZM2109.35 71.2C2109.35 48.2349 2115.71 31.1763 2128.11 19.6661L2125.39 16.7339C2111.93 29.2237 2105.35 47.4984 2105.35 71.2H2109.35ZM2128.11 19.6656C2140.7 7.98015 2158.68 1.99999 2182.35 1.99999V-2.00001C2158.02 -2.00001 2138.94 4.15317 2125.39 16.7344L2128.11 19.6656ZM2372.55 140H2370.55V142H2372.55V140ZM2372.55 87.8H2374.55V85.8H2372.55V87.8ZM2323.95 87.8V85.8H2321.95V87.8H2323.95ZM2323.95 140V142H2325.95V140H2323.95ZM2279.75 140H2277.75V142H2279.75V140ZM2279.75 2.4V0.399995H2277.75V2.4H2279.75ZM2323.95 2.4H2325.95V0.399995H2323.95V2.4ZM2323.95 52.6H2321.95V54.6H2323.95V52.6ZM2372.55 52.6V54.6H2374.55V52.6H2372.55ZM2372.55 2.4V0.399995H2370.55V2.4H2372.55ZM2416.75 2.4H2418.75V0.399995H2416.75V2.4ZM2416.75 140V142H2418.75V140H2416.75ZM2374.55 140V87.8H2370.55V140H2374.55ZM2372.55 85.8H2323.95V89.8H2372.55V85.8ZM2321.95 87.8V140H2325.95V87.8H2321.95ZM2323.95 138H2279.75V142H2323.95V138ZM2281.75 140V2.4H2277.75V140H2281.75ZM2279.75 4.4H2323.95V0.399995H2279.75V4.4ZM2321.95 2.4V52.6H2325.95V2.4H2321.95ZM2323.95 54.6H2372.55V50.6H2323.95V54.6ZM2374.55 52.6V2.4H2370.55V52.6H2374.55ZM2372.55 4.4H2416.75V0.399995H2372.55V4.4ZM2414.75 2.4V140H2418.75V2.4H2414.75ZM2416.75 138H2372.55V142H2416.75V138ZM2631.16 140H2629.16V142H2631.16V140ZM2631.76 71.6L2629.76 71.4373L2629.76 71.4562L2629.76 71.4752L2631.76 71.6ZM2633.36 55.2L2635.34 55.4407L2635.34 55.4407L2633.36 55.2ZM2634.36 46.8L2636.34 47.0209L2636.59 44.8H2634.36V46.8ZM2633.56 46.8V44.8H2632.03L2631.63 46.2741L2633.56 46.8ZM2608.16 140V142H2609.68L2610.09 140.526L2608.16 140ZM2573.56 140L2571.63 140.531L2572.03 142H2573.56V140ZM2547.96 47L2549.88 46.4692L2549.48 45H2547.96V47ZM2547.16 47V45H2544.92L2545.17 47.2209L2547.16 47ZM2548.16 55.4L2546.17 55.6407L2546.17 55.6748L2546.18 55.7088L2548.16 55.4ZM2549.96 71.6L2547.96 71.7627L2547.96 71.7661L2549.96 71.6ZM2550.76 140V142H2552.76V140H2550.76ZM2510.16 140H2508.16V142H2510.16V140ZM2510.16 2.4V0.399995H2508.16V2.4H2510.16ZM2572.56 2.4L2574.49 1.89317L2574.1 0.399995H2572.56V2.4ZM2593.36 81.8L2591.42 82.3068L2591.81 83.8H2593.36V81.8ZM2594.16 81.8V83.8H2595.7L2596.09 82.3023L2594.16 81.8ZM2614.76 2.4V0.399995H2613.21L2612.82 1.89773L2614.76 2.4ZM2674.96 2.4H2676.96V0.399995H2674.96V2.4ZM2674.96 140V142H2676.96V140H2674.96ZM2633.16 140V90.4H2629.16V140H2633.16ZM2633.16 90.4C2633.16 84.3101 2633.35 78.0851 2633.75 71.7248L2629.76 71.4752C2629.36 77.9149 2629.16 84.2232 2629.16 90.4H2633.16ZM2633.75 71.7627C2634.28 65.2444 2634.81 59.8057 2635.34 55.4407L2631.37 54.9593C2630.83 59.3943 2630.3 64.8889 2629.76 71.4373L2633.75 71.7627ZM2635.34 55.4407C2635.87 51.0438 2636.21 48.2329 2636.34 47.0209L2632.37 46.5791C2632.24 47.7671 2631.9 50.5562 2631.37 54.9593L2635.34 55.4407ZM2634.36 44.8H2633.56V48.8H2634.36V44.8ZM2631.63 46.2741L2606.23 139.474L2610.09 140.526L2635.49 47.3259L2631.63 46.2741ZM2608.16 138H2573.56V142H2608.16V138ZM2575.48 139.469L2549.88 46.4692L2546.03 47.5308L2571.63 140.531L2575.48 139.469ZM2547.96 45H2547.16V49H2547.96V45ZM2545.17 47.2209C2545.3 48.4329 2545.64 51.2438 2546.17 55.6407L2550.14 55.1593C2549.61 50.7562 2549.28 47.9671 2549.14 46.7791L2545.17 47.2209ZM2546.18 55.7088C2546.84 59.9091 2547.43 65.2561 2547.96 71.7627L2551.95 71.4373C2551.41 64.8773 2550.81 59.4243 2550.13 55.0912L2546.18 55.7088ZM2547.96 71.7661C2548.49 78.1134 2548.76 84.3246 2548.76 90.4H2552.76C2552.76 84.2087 2552.49 77.8866 2551.95 71.4339L2547.96 71.7661ZM2548.76 90.4V140H2552.76V90.4H2548.76ZM2550.76 138H2510.16V142H2550.76V138ZM2512.16 140V2.4H2508.16V140H2512.16ZM2510.16 4.4H2572.56V0.399995H2510.16V4.4ZM2570.62 2.90682L2591.42 82.3068L2595.29 81.2932L2574.49 1.89317L2570.62 2.90682ZM2593.36 83.8H2594.16V79.8H2593.36V83.8ZM2596.09 82.3023L2616.69 2.90226L2612.82 1.89773L2592.22 81.2977L2596.09 82.3023ZM2614.76 4.4H2674.96V0.399995H2614.76V4.4ZM2672.96 2.4V140H2676.96V2.4H2672.96ZM2674.96 138H2631.16V142H2674.96V138ZM2703.82 140H2701.82V142H2703.82V140ZM2703.82 2.4V0.399995H2701.82V2.4H2703.82ZM2748.02 2.4H2750.02V0.399995H2748.02V2.4ZM2748.02 140V142H2750.02V140H2748.02ZM2705.82 140V2.4H2701.82V140H2705.82ZM2703.82 4.4H2748.02V0.399995H2703.82V4.4ZM2746.02 2.4V140H2750.02V2.4H2746.02ZM2748.02 138H2703.82V142H2748.02V138ZM2779.56 2.4V0.399995H2777.56V2.4H2779.56ZM2823.76 2.4H2825.76V0.399995H2823.76V2.4ZM2823.76 104.8H2821.76V106.8H2823.76V104.8ZM2894.36 104.8H2896.36V102.8H2894.36V104.8ZM2894.36 140V142H2896.36V140H2894.36ZM2779.56 140H2777.56V142H2779.56V140ZM2779.56 4.4H2823.76V0.399995H2779.56V4.4ZM2821.76 2.4V104.8H2825.76V2.4H2821.76ZM2823.76 106.8H2894.36V102.8H2823.76V106.8ZM2892.36 104.8V140H2896.36V104.8H2892.36ZM2894.36 138H2779.56V142H2894.36V138ZM2781.56 140V2.4H2777.56V140H2781.56ZM2912.96 2.4V0.399995H2910.96V2.4H2912.96ZM3031.96 2.4H3033.96V0.399995H3031.96V2.4ZM3031.96 35.4V37.4H3033.96V35.4H3031.96ZM2957.16 35.4V33.4H2955.16V35.4H2957.16ZM2957.16 54.4H2955.16V56.4H2957.16V54.4ZM3021.16 54.4H3023.16V52.4H3021.16V54.4ZM3021.16 86V88H3023.16V86H3021.16ZM2957.16 86V84H2955.16V86H2957.16ZM2957.16 107H2955.16V109H2957.16V107ZM3033.36 107H3035.36V105H3033.36V107ZM3033.36 140V142H3035.36V140H3033.36ZM2912.96 140H2910.96V142H2912.96V140ZM2912.96 4.4H3031.96V0.399995H2912.96V4.4ZM3029.96 2.4V35.4H3033.96V2.4H3029.96ZM3031.96 33.4H2957.16V37.4H3031.96V33.4ZM2955.16 35.4V54.4H2959.16V35.4H2955.16ZM2957.16 56.4H3021.16V52.4H2957.16V56.4ZM3019.16 54.4V86H3023.16V54.4H3019.16ZM3021.16 84H2957.16V88H3021.16V84ZM2955.16 86V107H2959.16V86H2955.16ZM2957.16 109H3033.36V105H2957.16V109ZM3031.36 107V140H3035.36V107H3031.36ZM3033.36 138H2912.96V142H3033.36V138ZM2914.96 140V2.4H2910.96V140H2914.96ZM3216.69 140H3214.69V142H3216.69V140ZM3216.69 87.8H3218.69V85.8H3216.69V87.8ZM3168.09 87.8V85.8H3166.09V87.8H3168.09ZM3168.09 140V142H3170.09V140H3168.09ZM3123.89 140H3121.89V142H3123.89V140ZM3123.89 2.4V0.399995H3121.89V2.4H3123.89ZM3168.09 2.4H3170.09V0.399995H3168.09V2.4ZM3168.09 52.6H3166.09V54.6H3168.09V52.6ZM3216.69 52.6V54.6H3218.69V52.6H3216.69ZM3216.69 2.4V0.399995H3214.69V2.4H3216.69ZM3260.89 2.4H3262.89V0.399995H3260.89V2.4ZM3260.89 140V142H3262.89V140H3260.89ZM3218.69 140V87.8H3214.69V140H3218.69ZM3216.69 85.8H3168.09V89.8H3216.69V85.8ZM3166.09 87.8V140H3170.09V87.8H3166.09ZM3168.09 138H3123.89V142H3168.09V138ZM3125.89 140V2.4H3121.89V140H3125.89ZM3123.89 4.4H3168.09V0.399995H3123.89V4.4ZM3166.09 2.4V52.6H3170.09V2.4H3166.09ZM3168.09 54.6H3216.69V50.6H3168.09V54.6ZM3218.69 52.6V2.4H3214.69V52.6H3218.69ZM3216.69 4.4H3260.89V0.399995H3216.69V4.4ZM3258.89 2.4V140H3262.89V2.4H3258.89ZM3260.89 138H3216.69V142H3260.89V138ZM3292.5 140H3290.5V142H3292.5V140ZM3292.5 2.4V0.399995H3290.5V2.4H3292.5ZM3336.7 2.4H3338.7V0.399995H3336.7V2.4ZM3336.7 140V142H3338.7V140H3336.7ZM3294.5 140V2.4H3290.5V140H3294.5ZM3292.5 4.4H3336.7V0.399995H3292.5V4.4ZM3334.7 2.4V140H3338.7V2.4H3334.7ZM3336.7 138H3292.5V142H3336.7V138ZM3473.03 6L3472.32 7.86972L3472.32 7.86972L3473.03 6ZM3498.03 23.8L3496.45 25.0297L3496.46 25.0446L3496.48 25.0592L3498.03 23.8ZM3507.43 52.2V54.2H3509.43V52.2H3507.43ZM3465.23 52.2H3463.23V54.2H3465.23V52.2ZM3457.63 38.4L3456.47 40.0304L3456.49 40.0406L3456.5 40.0506L3457.63 38.4ZM3415.63 41.4L3417.06 42.7966L3417.07 42.788L3417.08 42.7793L3415.63 41.4ZM3415.63 101.2L3414.18 102.579L3414.19 102.588L3414.2 102.597L3415.63 101.2ZM3457.63 104.4L3458.73 106.071L3458.74 106.061L3458.76 106.051L3457.63 104.4ZM3465.23 91.2H3467.23V89.2H3465.23V91.2ZM3434.03 91.2H3432.03V93.2H3434.03V91.2ZM3434.03 63.2V61.2H3432.03V63.2H3434.03ZM3507.43 63.2H3509.43V61.2H3507.43V63.2ZM3507.43 140V142H3509.43V140H3507.43ZM3484.63 140L3482.73 140.616L3483.17 142H3484.63V140ZM3480.23 126.4L3482.13 125.784L3481.21 122.938L3478.93 124.877L3480.23 126.4ZM3379.63 124.6L3378.18 125.982L3378.19 125.99L3379.63 124.6ZM3381.83 18.2L3383.19 19.6661L3383.19 19.6656L3381.83 18.2ZM3437.43 1.99999C3450.43 1.99999 3462.05 3.96925 3472.32 7.86972L3473.74 4.13027C3462.94 0.0307389 3450.83 -2.00001 3437.43 -2.00001V1.99999ZM3472.32 7.86972C3482.56 11.757 3490.57 17.4878 3496.45 25.0297L3499.61 22.5703C3493.22 14.3789 3484.57 8.24298 3473.74 4.13027L3472.32 7.86972ZM3496.48 25.0592C3502.42 32.3918 3505.43 41.3977 3505.43 52.2H3509.43C3509.43 40.6023 3506.17 30.6749 3499.58 22.5408L3496.48 25.0592ZM3507.43 50.2H3465.23V54.2H3507.43V50.2ZM3467.23 52.2C3467.23 45.7531 3464.32 40.5576 3458.76 36.7494L3456.5 40.0506C3461.07 43.1757 3463.23 47.1803 3463.23 52.2H3467.23ZM3458.79 36.7696C3453.33 32.8926 3446.78 31 3439.23 31V35C3446.08 35 3451.79 36.7074 3456.47 40.0304L3458.79 36.7696ZM3439.23 31C3428.48 31 3420.01 33.9019 3414.18 40.0207L3417.08 42.7793C3421.92 37.6981 3429.18 35 3439.23 35V31ZM3414.2 40.0033C3408.39 45.9529 3405.63 54.3206 3405.63 64.8H3409.63C3409.63 55.0127 3412.2 47.7804 3417.06 42.7966L3414.2 40.0033ZM3405.63 64.8V77.6H3409.63V64.8H3405.63ZM3405.63 77.6C3405.63 88.0824 3408.39 96.5033 3414.18 102.579L3417.08 99.8207C3412.2 94.6967 3409.63 87.3842 3409.63 77.6H3405.63ZM3414.2 102.597C3420.03 108.572 3428.49 111.4 3439.23 111.4V107.4C3429.17 107.4 3421.9 104.761 3417.06 99.8034L3414.2 102.597ZM3439.23 111.4C3446.75 111.4 3453.28 109.656 3458.73 106.071L3456.53 102.729C3451.85 105.81 3446.11 107.4 3439.23 107.4V111.4ZM3458.76 106.051C3464.28 102.276 3467.23 97.3012 3467.23 91.2H3463.23C3463.23 95.7655 3461.12 99.5903 3456.5 102.749L3458.76 106.051ZM3465.23 89.2H3434.03V93.2H3465.23V89.2ZM3436.03 91.2V63.2H3432.03V91.2H3436.03ZM3434.03 65.2H3507.43V61.2H3434.03V65.2ZM3505.43 63.2V140H3509.43V63.2H3505.43ZM3507.43 138H3484.63V142H3507.43V138ZM3486.53 139.384L3482.13 125.784L3478.33 127.016L3482.73 140.616L3486.53 139.384ZM3478.93 124.877C3466.84 135.169 3450.94 140.4 3431.03 140.4V144.4C3451.66 144.4 3468.55 138.964 3481.53 127.923L3478.93 124.877ZM3431.03 140.4C3408.56 140.4 3392.03 134.557 3381.07 123.21L3378.19 125.99C3390.16 138.376 3407.9 144.4 3431.03 144.4V140.4ZM3381.08 123.218C3370.09 111.723 3364.43 94.5029 3364.43 71.2H3360.43C3360.43 95.0971 3366.24 113.477 3378.18 125.982L3381.08 123.218ZM3364.43 71.2C3364.43 48.2349 3370.78 31.1763 3383.19 19.6661L3380.47 16.7339C3367.01 29.2237 3360.43 47.4984 3360.43 71.2H3364.43ZM3383.19 19.6656C3395.77 7.98015 3413.76 1.99999 3437.43 1.99999V-2.00001C3413.1 -2.00001 3394.02 4.15317 3380.47 16.7344L3383.19 19.6656ZM3627.63 140H3625.63V142H3627.63V140ZM3627.63 87.8H3629.63V85.8H3627.63V87.8ZM3579.03 87.8V85.8H3577.03V87.8H3579.03ZM3579.03 140V142H3581.03V140H3579.03ZM3534.83 140H3532.83V142H3534.83V140ZM3534.83 2.4V0.399995H3532.83V2.4H3534.83ZM3579.03 2.4H3581.03V0.399995H3579.03V2.4ZM3579.03 52.6H3577.03V54.6H3579.03V52.6ZM3627.63 52.6V54.6H3629.63V52.6H3627.63ZM3627.63 2.4V0.399995H3625.63V2.4H3627.63ZM3671.83 2.4H3673.83V0.399995H3671.83V2.4ZM3671.83 140V142H3673.83V140H3671.83ZM3629.63 140V87.8H3625.63V140H3629.63ZM3627.63 85.8H3579.03V89.8H3627.63V85.8ZM3577.03 87.8V140H3581.03V87.8H3577.03ZM3579.03 138H3534.83V142H3579.03V138ZM3536.83 140V2.4H3532.83V140H3536.83ZM3534.83 4.4H3579.03V0.399995H3534.83V4.4ZM3577.03 2.4V52.6H3581.03V2.4H3577.03ZM3579.03 54.6H3627.63V50.6H3579.03V54.6ZM3629.63 52.6V2.4H3625.63V52.6H3629.63ZM3627.63 4.4H3671.83V0.399995H3627.63V4.4ZM3669.83 2.4V140H3673.83V2.4H3669.83ZM3671.83 138H3627.63V142H3671.83V138ZM3886.23 140H3884.23V142H3886.23V140ZM3886.83 71.6L3884.84 71.4373L3884.84 71.4562L3884.84 71.4752L3886.83 71.6ZM3888.43 55.2L3890.42 55.4407L3890.42 55.4407L3888.43 55.2ZM3889.43 46.8L3891.42 47.0209L3891.67 44.8H3889.43V46.8ZM3888.63 46.8V44.8H3887.11L3886.7 46.2741L3888.63 46.8ZM3863.23 140V142H3864.76L3865.16 140.526L3863.23 140ZM3828.63 140L3826.71 140.531L3827.11 142H3828.63V140ZM3803.03 47L3804.96 46.4692L3804.56 45H3803.03V47ZM3802.23 47V45H3800L3800.25 47.2209L3802.23 47ZM3803.23 55.4L3801.25 55.6407L3801.25 55.6748L3801.26 55.7088L3803.23 55.4ZM3805.03 71.6L3803.04 71.7627L3803.04 71.7661L3805.03 71.6ZM3805.83 140V142H3807.83V140H3805.83ZM3765.23 140H3763.23V142H3765.23V140ZM3765.23 2.4V0.399995H3763.23V2.4H3765.23ZM3827.63 2.4L3829.57 1.89317L3829.18 0.399995H3827.63V2.4ZM3848.43 81.8L3846.5 82.3068L3846.89 83.8H3848.43V81.8ZM3849.23 81.8V83.8H3850.78L3851.17 82.3023L3849.23 81.8ZM3869.83 2.4V0.399995H3868.29L3867.9 1.89773L3869.83 2.4ZM3930.03 2.4H3932.03V0.399995H3930.03V2.4ZM3930.03 140V142H3932.03V140H3930.03ZM3888.23 140V90.4H3884.23V140H3888.23ZM3888.23 90.4C3888.23 84.3101 3888.43 78.0851 3888.83 71.7248L3884.84 71.4752C3884.44 77.9149 3884.23 84.2232 3884.23 90.4H3888.23ZM3888.83 71.7627C3889.36 65.2444 3889.89 59.8057 3890.42 55.4407L3886.45 54.9593C3885.91 59.3943 3885.38 64.8889 3884.84 71.4373L3888.83 71.7627ZM3890.42 55.4407C3890.95 51.0438 3891.29 48.2329 3891.42 47.0209L3887.45 46.5791C3887.31 47.7671 3886.98 50.5562 3886.45 54.9593L3890.42 55.4407ZM3889.43 44.8H3888.63V48.8H3889.43V44.8ZM3886.7 46.2741L3861.3 139.474L3865.16 140.526L3890.56 47.3259L3886.7 46.2741ZM3863.23 138H3828.63V142H3863.23V138ZM3830.56 139.469L3804.96 46.4692L3801.11 47.5308L3826.71 140.531L3830.56 139.469ZM3803.03 45H3802.23V49H3803.03V45ZM3800.25 47.2209C3800.38 48.4329 3800.72 51.2438 3801.25 55.6407L3805.22 55.1593C3804.69 50.7562 3804.35 47.9671 3804.22 46.7791L3800.25 47.2209ZM3801.26 55.7088C3801.91 59.9091 3802.51 65.2561 3803.04 71.7627L3807.03 71.4373C3806.49 64.8773 3805.89 59.4243 3805.21 55.0912L3801.26 55.7088ZM3803.04 71.7661C3803.57 78.1134 3803.83 84.3246 3803.83 90.4H3807.83C3807.83 84.2087 3807.57 77.8866 3807.03 71.4339L3803.04 71.7661ZM3803.83 90.4V140H3807.83V90.4H3803.83ZM3805.83 138H3765.23V142H3805.83V138ZM3767.23 140V2.4H3763.23V140H3767.23ZM3765.23 4.4H3827.63V0.399995H3765.23V4.4ZM3825.7 2.90682L3846.5 82.3068L3850.37 81.2932L3829.57 1.89317L3825.7 2.90682ZM3848.43 83.8H3849.23V79.8H3848.43V83.8ZM3851.17 82.3023L3871.77 2.90226L3867.9 1.89773L3847.3 81.2977L3851.17 82.3023ZM3869.83 4.4H3930.03V0.399995H3869.83V4.4ZM3928.03 2.4V140H3932.03V2.4H3928.03ZM3930.03 138H3886.23V142H3930.03V138ZM3958.9 140H3956.9V142H3958.9V140ZM3958.9 2.4V0.399995H3956.9V2.4H3958.9ZM4003.1 2.4H4005.1V0.399995H4003.1V2.4ZM4003.1 140V142H4005.1V140H4003.1ZM3960.9 140V2.4H3956.9V140H3960.9ZM3958.9 4.4H4003.1V0.399995H3958.9V4.4ZM4001.1 2.4V140H4005.1V2.4H4001.1ZM4003.1 138H3958.9V142H4003.1V138ZM4034.64 2.4V0.399995H4032.64V2.4H4034.64ZM4078.84 2.4H4080.84V0.399995H4078.84V2.4ZM4078.84 104.8H4076.84V106.8H4078.84V104.8ZM4149.44 104.8H4151.44V102.8H4149.44V104.8ZM4149.44 140V142H4151.44V140H4149.44ZM4034.64 140H4032.64V142H4034.64V140ZM4034.64 4.4H4078.84V0.399995H4034.64V4.4ZM4076.84 2.4V104.8H4080.84V2.4H4076.84ZM4078.84 106.8H4149.44V102.8H4078.84V106.8ZM4147.44 104.8V140H4151.44V104.8H4147.44ZM4149.44 138H4034.64V142H4149.44V138ZM4036.64 140V2.4H4032.64V140H4036.64ZM4168.03 2.4V0.399995H4166.03V2.4H4168.03ZM4287.03 2.4H4289.03V0.399995H4287.03V2.4ZM4287.03 35.4V37.4H4289.03V35.4H4287.03ZM4212.23 35.4V33.4H4210.23V35.4H4212.23ZM4212.23 54.4H4210.23V56.4H4212.23V54.4ZM4276.23 54.4H4278.23V52.4H4276.23V54.4ZM4276.23 86V88H4278.23V86H4276.23ZM4212.23 86V84H4210.23V86H4212.23ZM4212.23 107H4210.23V109H4212.23V107ZM4288.43 107H4290.43V105H4288.43V107ZM4288.43 140V142H4290.43V140H4288.43ZM4168.03 140H4166.03V142H4168.03V140ZM4168.03 4.4H4287.03V0.399995H4168.03V4.4ZM4285.03 2.4V35.4H4289.03V2.4H4285.03ZM4287.03 33.4H4212.23V37.4H4287.03V33.4ZM4210.23 35.4V54.4H4214.23V35.4H4210.23ZM4212.23 56.4H4276.23V52.4H4212.23V56.4ZM4274.23 54.4V86H4278.23V54.4H4274.23ZM4276.23 84H4212.23V88H4276.23V84ZM4210.23 86V107H4214.23V86H4210.23ZM4212.23 109H4288.43V105H4212.23V109ZM4286.43 107V140H4290.43V107H4286.43ZM4288.43 138H4168.03V142H4288.43V138ZM4170.03 140V2.4H4166.03V140H4170.03ZM4471.77 140H4469.77V142H4471.77V140ZM4471.77 87.8H4473.77V85.8H4471.77V87.8ZM4423.17 87.8V85.8H4421.17V87.8H4423.17ZM4423.17 140V142H4425.17V140H4423.17ZM4378.97 140H4376.97V142H4378.97V140ZM4378.97 2.4V0.399995H4376.97V2.4H4378.97ZM4423.17 2.4H4425.17V0.399995H4423.17V2.4ZM4423.17 52.6H4421.17V54.6H4423.17V52.6ZM4471.77 52.6V54.6H4473.77V52.6H4471.77ZM4471.77 2.4V0.399995H4469.77V2.4H4471.77ZM4515.97 2.4H4517.97V0.399995H4515.97V2.4ZM4515.97 140V142H4517.97V140H4515.97ZM4473.77 140V87.8H4469.77V140H4473.77ZM4471.77 85.8H4423.17V89.8H4471.77V85.8ZM4421.17 87.8V140H4425.17V87.8H4421.17ZM4423.17 138H4378.97V142H4423.17V138ZM4380.97 140V2.4H4376.97V140H4380.97ZM4378.97 4.4H4423.17V0.399995H4378.97V4.4ZM4421.17 2.4V52.6H4425.17V2.4H4421.17ZM4423.17 54.6H4471.77V50.6H4423.17V54.6ZM4473.77 52.6V2.4H4469.77V52.6H4473.77ZM4471.77 4.4H4515.97V0.399995H4471.77V4.4ZM4513.97 2.4V140H4517.97V2.4H4513.97ZM4515.97 138H4471.77V142H4515.97V138ZM4547.57 140H4545.57V142H4547.57V140ZM4547.57 2.4V0.399995H4545.57V2.4H4547.57ZM4591.77 2.4H4593.77V0.399995H4591.77V2.4ZM4591.77 140V142H4593.77V140H4591.77ZM4549.57 140V2.4H4545.57V140H4549.57ZM4547.57 4.4H4591.77V0.399995H4547.57V4.4ZM4589.77 2.4V140H4593.77V2.4H4589.77ZM4591.77 138H4547.57V142H4591.77V138ZM4728.11 6L4727.4 7.86972L4727.4 7.86972L4728.11 6ZM4753.11 23.8L4751.53 25.0297L4751.54 25.0446L4751.55 25.0592L4753.11 23.8ZM4762.51 52.2V54.2H4764.51V52.2H4762.51ZM4720.31 52.2H4718.31V54.2H4720.31V52.2ZM4712.71 38.4L4711.55 40.0304L4711.56 40.0406L4711.58 40.0506L4712.71 38.4ZM4670.71 41.4L4672.14 42.7966L4672.15 42.788L4672.16 42.7793L4670.71 41.4ZM4670.71 101.2L4669.26 102.579L4669.27 102.588L4669.28 102.597L4670.71 101.2ZM4712.71 104.4L4713.81 106.071L4713.82 106.061L4713.84 106.051L4712.71 104.4ZM4720.31 91.2H4722.31V89.2H4720.31V91.2ZM4689.11 91.2H4687.11V93.2H4689.11V91.2ZM4689.11 63.2V61.2H4687.11V63.2H4689.11ZM4762.51 63.2H4764.51V61.2H4762.51V63.2ZM4762.51 140V142H4764.51V140H4762.51ZM4739.71 140L4737.8 140.616L4738.25 142H4739.71V140ZM4735.31 126.4L4737.21 125.784L4736.29 122.938L4734.01 124.877L4735.31 126.4ZM4634.71 124.6L4633.26 125.982L4633.27 125.99L4634.71 124.6ZM4636.91 18.2L4638.27 19.6661L4638.27 19.6656L4636.91 18.2ZM4692.51 1.99999C4705.51 1.99999 4717.13 3.96925 4727.4 7.86972L4728.82 4.13027C4718.02 0.0307389 4705.91 -2.00001 4692.51 -2.00001V1.99999ZM4727.4 7.86972C4737.63 11.757 4745.65 17.4878 4751.53 25.0297L4754.69 22.5703C4748.3 14.3789 4739.65 8.24298 4728.82 4.13027L4727.4 7.86972ZM4751.55 25.0592C4757.5 32.3918 4760.51 41.3977 4760.51 52.2H4764.51C4764.51 40.6023 4761.25 30.6749 4754.66 22.5408L4751.55 25.0592ZM4762.51 50.2H4720.31V54.2H4762.51V50.2ZM4722.31 52.2C4722.31 45.7531 4719.4 40.5576 4713.84 36.7494L4711.58 40.0506C4716.15 43.1757 4718.31 47.1803 4718.31 52.2H4722.31ZM4713.87 36.7696C4708.41 32.8926 4701.86 31 4694.31 31V35C4701.16 35 4706.87 36.7074 4711.55 40.0304L4713.87 36.7696ZM4694.31 31C4683.56 31 4675.09 33.9019 4669.26 40.0207L4672.16 42.7793C4677 37.6981 4684.26 35 4694.31 35V31ZM4669.28 40.0033C4663.47 45.9529 4660.71 54.3206 4660.71 64.8H4664.71C4664.71 55.0127 4667.28 47.7804 4672.14 42.7966L4669.28 40.0033ZM4660.71 64.8V77.6H4664.71V64.8H4660.71ZM4660.71 77.6C4660.71 88.0824 4663.47 96.5033 4669.26 102.579L4672.16 99.8207C4667.28 94.6967 4664.71 87.3842 4664.71 77.6H4660.71ZM4669.28 102.597C4675.11 108.572 4683.57 111.4 4694.31 111.4V107.4C4684.25 107.4 4676.98 104.761 4672.14 99.8034L4669.28 102.597ZM4694.31 111.4C4701.82 111.4 4708.36 109.656 4713.81 106.071L4711.61 102.729C4706.93 105.81 4701.19 107.4 4694.31 107.4V111.4ZM4713.84 106.051C4719.35 102.276 4722.31 97.3012 4722.31 91.2H4718.31C4718.31 95.7655 4716.2 99.5903 4711.58 102.749L4713.84 106.051ZM4720.31 89.2H4689.11V93.2H4720.31V89.2ZM4691.11 91.2V63.2H4687.11V91.2H4691.11ZM4689.11 65.2H4762.51V61.2H4689.11V65.2ZM4760.51 63.2V140H4764.51V63.2H4760.51ZM4762.51 138H4739.71V142H4762.51V138ZM4741.61 139.384L4737.21 125.784L4733.4 127.016L4737.8 140.616L4741.61 139.384ZM4734.01 124.877C4721.92 135.169 4706.01 140.4 4686.11 140.4V144.4C4706.74 144.4 4723.63 138.964 4736.6 127.923L4734.01 124.877ZM4686.11 140.4C4663.64 140.4 4647.11 134.557 4636.15 123.21L4633.27 125.99C4645.24 138.376 4662.98 144.4 4686.11 144.4V140.4ZM4636.15 123.218C4625.17 111.723 4619.51 94.5029 4619.51 71.2H4615.51C4615.51 95.0971 4621.31 113.477 4633.26 125.982L4636.15 123.218ZM4619.51 71.2C4619.51 48.2349 4625.86 31.1763 4638.27 19.6661L4635.55 16.7339C4622.09 29.2237 4615.51 47.4984 4615.51 71.2H4619.51ZM4638.27 19.6656C4650.85 7.98015 4668.83 1.99999 4692.51 1.99999V-2.00001C4668.18 -2.00001 4649.1 4.15317 4635.55 16.7344L4638.27 19.6656ZM4882.71 140H4880.71V142H4882.71V140ZM4882.71 87.8H4884.71V85.8H4882.71V87.8ZM4834.11 87.8V85.8H4832.11V87.8H4834.11ZM4834.11 140V142H4836.11V140H4834.11ZM4789.91 140H4787.91V142H4789.91V140ZM4789.91 2.4V0.399995H4787.91V2.4H4789.91ZM4834.11 2.4H4836.11V0.399995H4834.11V2.4ZM4834.11 52.6H4832.11V54.6H4834.11V52.6ZM4882.71 52.6V54.6H4884.71V52.6H4882.71ZM4882.71 2.4V0.399995H4880.71V2.4H4882.71ZM4926.91 2.4H4928.91V0.399995H4926.91V2.4ZM4926.91 140V142H4928.91V140H4926.91ZM4884.71 140V87.8H4880.71V140H4884.71ZM4882.71 85.8H4834.11V89.8H4882.71V85.8ZM4832.11 87.8V140H4836.11V87.8H4832.11ZM4834.11 138H4789.91V142H4834.11V138ZM4791.91 140V2.4H4787.91V140H4791.91ZM4789.91 4.4H4834.11V0.399995H4789.91V4.4ZM4832.11 2.4V52.6H4836.11V2.4H4832.11ZM4834.11 54.6H4882.71V50.6H4834.11V54.6ZM4884.71 52.6V2.4H4880.71V52.6H4884.71ZM4882.71 4.4H4926.91V0.399995H4882.71V4.4ZM4924.91 2.4V140H4928.91V2.4H4924.91ZM4926.91 138H4882.71V142H4926.91V138ZM5141.31 140H5139.31V142H5141.31V140ZM5141.91 71.6L5139.92 71.4373L5139.92 71.4562L5139.92 71.4752L5141.91 71.6ZM5143.51 55.2L5145.5 55.4407L5145.5 55.4407L5143.51 55.2ZM5144.51 46.8L5146.5 47.0209L5146.75 44.8H5144.51V46.8ZM5143.71 46.8V44.8H5142.18L5141.78 46.2741L5143.71 46.8ZM5118.31 140V142H5119.84L5120.24 140.526L5118.31 140ZM5083.71 140L5081.78 140.531L5082.19 142H5083.71V140ZM5058.11 47L5060.04 46.4692L5059.64 45H5058.11V47ZM5057.31 47V45H5055.08L5055.32 47.2209L5057.31 47ZM5058.31 55.4L5056.33 55.6407L5056.33 55.6748L5056.34 55.7088L5058.31 55.4ZM5060.11 71.6L5058.12 71.7627L5058.12 71.7661L5060.11 71.6ZM5060.91 140V142H5062.91V140H5060.91ZM5020.31 140H5018.31V142H5020.31V140ZM5020.31 2.4V0.399995H5018.31V2.4H5020.31ZM5082.71 2.4L5084.65 1.89317L5084.26 0.399995H5082.71V2.4ZM5103.51 81.8L5101.58 82.3068L5101.97 83.8H5103.51V81.8ZM5104.31 81.8V83.8H5105.86L5106.25 82.3023L5104.31 81.8ZM5124.91 2.4V0.399995H5123.37L5122.98 1.89773L5124.91 2.4ZM5185.11 2.4H5187.11V0.399995H5185.11V2.4ZM5185.11 140V142H5187.11V140H5185.11ZM5143.31 140V90.4H5139.31V140H5143.31ZM5143.31 90.4C5143.31 84.3101 5143.51 78.0851 5143.91 71.7248L5139.92 71.4752C5139.51 77.9149 5139.31 84.2232 5139.31 90.4H5143.31ZM5143.91 71.7627C5144.44 65.2444 5144.97 59.8057 5145.5 55.4407L5141.53 54.9593C5140.99 59.3943 5140.45 64.8889 5139.92 71.4373L5143.91 71.7627ZM5145.5 55.4407C5146.03 51.0438 5146.37 48.2329 5146.5 47.0209L5142.52 46.5791C5142.39 47.7671 5142.06 50.5562 5141.53 54.9593L5145.5 55.4407ZM5144.51 44.8H5143.71V48.8H5144.51V44.8ZM5141.78 46.2741L5116.38 139.474L5120.24 140.526L5145.64 47.3259L5141.78 46.2741ZM5118.31 138H5083.71V142H5118.31V138ZM5085.64 139.469L5060.04 46.4692L5056.18 47.5308L5081.78 140.531L5085.64 139.469ZM5058.11 45H5057.31V49H5058.11V45ZM5055.32 47.2209C5055.46 48.4329 5055.79 51.2438 5056.33 55.6407L5060.3 55.1593C5059.76 50.7562 5059.43 47.9671 5059.3 46.7791L5055.32 47.2209ZM5056.34 55.7088C5056.99 59.9091 5057.59 65.2561 5058.12 71.7627L5062.11 71.4373C5061.57 64.8773 5060.97 59.4243 5060.29 55.0912L5056.34 55.7088ZM5058.12 71.7661C5058.65 78.1134 5058.91 84.3246 5058.91 90.4H5062.91C5062.91 84.2087 5062.64 77.8866 5062.11 71.4339L5058.12 71.7661ZM5058.91 90.4V140H5062.91V90.4H5058.91ZM5060.91 138H5020.31V142H5060.91V138ZM5022.31 140V2.4H5018.31V140H5022.31ZM5020.31 4.4H5082.71V0.399995H5020.31V4.4ZM5080.78 2.90682L5101.58 82.3068L5105.45 81.2932L5084.65 1.89317L5080.78 2.90682ZM5103.51 83.8H5104.31V79.8H5103.51V83.8ZM5106.25 82.3023L5126.85 2.90226L5122.98 1.89773L5102.38 81.2977L5106.25 82.3023ZM5124.91 4.4H5185.11V0.399995H5124.91V4.4ZM5183.11 2.4V140H5187.11V2.4H5183.11ZM5185.11 138H5141.31V142H5185.11V138ZM5213.98 140H5211.98V142H5213.98V140ZM5213.98 2.4V0.399995H5211.98V2.4H5213.98ZM5258.18 2.4H5260.18V0.399995H5258.18V2.4ZM5258.18 140V142H5260.18V140H5258.18ZM5215.98 140V2.4H5211.98V140H5215.98ZM5213.98 4.4H5258.18V0.399995H5213.98V4.4ZM5256.18 2.4V140H5260.18V2.4H5256.18ZM5258.18 138H5213.98V142H5258.18V138ZM5289.71 2.4V0.399995H5287.71V2.4H5289.71ZM5333.91 2.4H5335.91V0.399995H5333.91V2.4ZM5333.91 104.8H5331.91V106.8H5333.91V104.8ZM5404.51 104.8H5406.51V102.8H5404.51V104.8ZM5404.51 140V142H5406.51V140H5404.51ZM5289.71 140H5287.71V142H5289.71V140ZM5289.71 4.4H5333.91V0.399995H5289.71V4.4ZM5331.91 2.4V104.8H5335.91V2.4H5331.91ZM5333.91 106.8H5404.51V102.8H5333.91V106.8ZM5402.51 104.8V140H5406.51V104.8H5402.51ZM5404.51 138H5289.71V142H5404.51V138ZM5291.71 140V2.4H5287.71V140H5291.71ZM5423.11 2.4V0.399995H5421.11V2.4H5423.11ZM5542.11 2.4H5544.11V0.399995H5542.11V2.4ZM5542.11 35.4V37.4H5544.11V35.4H5542.11ZM5467.31 35.4V33.4H5465.31V35.4H5467.31ZM5467.31 54.4H5465.31V56.4H5467.31V54.4ZM5531.31 54.4H5533.31V52.4H5531.31V54.4ZM5531.31 86V88H5533.31V86H5531.31ZM5467.31 86V84H5465.31V86H5467.31ZM5467.31 107H5465.31V109H5467.31V107ZM5543.51 107H5545.51V105H5543.51V107ZM5543.51 140V142H5545.51V140H5543.51ZM5423.11 140H5421.11V142H5423.11V140ZM5423.11 4.4H5542.11V0.399995H5423.11V4.4ZM5540.11 2.4V35.4H5544.11V2.4H5540.11ZM5542.11 33.4H5467.31V37.4H5542.11V33.4ZM5465.31 35.4V54.4H5469.31V35.4H5465.31ZM5467.31 56.4H5531.31V52.4H5467.31V56.4ZM5529.31 54.4V86H5533.31V54.4H5529.31ZM5531.31 84H5467.31V88H5531.31V84ZM5465.31 86V107H5469.31V86H5465.31ZM5467.31 109H5543.51V105H5467.31V109ZM5541.51 107V140H5545.51V107H5541.51ZM5543.51 138H5423.11V142H5543.51V138ZM5425.11 140V2.4H5421.11V140H5425.11ZM5726.85 140H5724.85V142H5726.85V140ZM5726.85 87.8H5728.85V85.8H5726.85V87.8ZM5678.25 87.8V85.8H5676.25V87.8H5678.25ZM5678.25 140V142H5680.25V140H5678.25ZM5634.05 140H5632.05V142H5634.05V140ZM5634.05 2.4V0.399995H5632.05V2.4H5634.05ZM5678.25 2.4H5680.25V0.399995H5678.25V2.4ZM5678.25 52.6H5676.25V54.6H5678.25V52.6ZM5726.85 52.6V54.6H5728.85V52.6H5726.85ZM5726.85 2.4V0.399995H5724.85V2.4H5726.85ZM5771.05 2.4H5773.05V0.399995H5771.05V2.4ZM5771.05 140V142H5773.05V140H5771.05ZM5728.85 140V87.8H5724.85V140H5728.85ZM5726.85 85.8H5678.25V89.8H5726.85V85.8ZM5676.25 87.8V140H5680.25V87.8H5676.25ZM5678.25 138H5634.05V142H5678.25V138ZM5636.05 140V2.4H5632.05V140H5636.05ZM5634.05 4.4H5678.25V0.399995H5634.05V4.4ZM5676.25 2.4V52.6H5680.25V2.4H5676.25ZM5678.25 54.6H5726.85V50.6H5678.25V54.6ZM5728.85 52.6V2.4H5724.85V52.6H5728.85ZM5726.85 4.4H5771.05V0.399995H5726.85V4.4ZM5769.05 2.4V140H5773.05V2.4H5769.05ZM5771.05 138H5726.85V142H5771.05V138ZM5802.65 140H5800.65V142H5802.65V140ZM5802.65 2.4V0.399995H5800.65V2.4H5802.65ZM5846.85 2.4H5848.85V0.399995H5846.85V2.4ZM5846.85 140V142H5848.85V140H5846.85ZM5804.65 140V2.4H5800.65V140H5804.65ZM5802.65 4.4H5846.85V0.399995H5802.65V4.4ZM5844.85 2.4V140H5848.85V2.4H5844.85ZM5846.85 138H5802.65V142H5846.85V138ZM5983.19 6L5982.48 7.86972L5982.48 7.86972L5983.19 6ZM6008.19 23.8L6006.61 25.0297L6006.62 25.0446L6006.63 25.0592L6008.19 23.8ZM6017.59 52.2V54.2H6019.59V52.2H6017.59ZM5975.39 52.2H5973.39V54.2H5975.39V52.2ZM5967.79 38.4L5966.63 40.0304L5966.64 40.0406L5966.66 40.0506L5967.79 38.4ZM5925.79 41.4L5927.22 42.7966L5927.23 42.788L5927.23 42.7793L5925.79 41.4ZM5925.79 101.2L5924.34 102.579L5924.35 102.588L5924.35 102.597L5925.79 101.2ZM5967.79 104.4L5968.89 106.071L5968.9 106.061L5968.92 106.051L5967.79 104.4ZM5975.39 91.2H5977.39V89.2H5975.39V91.2ZM5944.19 91.2H5942.19V93.2H5944.19V91.2ZM5944.19 63.2V61.2H5942.19V63.2H5944.19ZM6017.59 63.2H6019.59V61.2H6017.59V63.2ZM6017.59 140V142H6019.59V140H6017.59ZM5994.79 140L5992.88 140.616L5993.33 142H5994.79V140ZM5990.39 126.4L5992.29 125.784L5991.37 122.938L5989.09 124.877L5990.39 126.4ZM5889.79 124.6L5888.34 125.982L5888.35 125.99L5889.79 124.6ZM5891.99 18.2L5893.35 19.6661L5893.35 19.6656L5891.99 18.2ZM5947.59 1.99999C5960.58 1.99999 5972.2 3.96925 5982.48 7.86972L5983.9 4.13027C5973.1 0.0307389 5960.99 -2.00001 5947.59 -2.00001V1.99999ZM5982.48 7.86972C5992.71 11.757 6000.73 17.4878 6006.61 25.0297L6009.76 22.5703C6003.38 14.3789 5994.73 8.24298 5983.9 4.13027L5982.48 7.86972ZM6006.63 25.0592C6012.57 32.3918 6015.59 41.3977 6015.59 52.2H6019.59C6019.59 40.6023 6016.33 30.6749 6009.74 22.5408L6006.63 25.0592ZM6017.59 50.2H5975.39V54.2H6017.59V50.2ZM5977.39 52.2C5977.39 45.7531 5974.48 40.5576 5968.92 36.7494L5966.66 40.0506C5971.22 43.1757 5973.39 47.1803 5973.39 52.2H5977.39ZM5968.94 36.7696C5963.49 32.8926 5956.93 31 5949.39 31V35C5956.24 35 5961.95 36.7074 5966.63 40.0304L5968.94 36.7696ZM5949.39 31C5938.63 31 5930.17 33.9019 5924.34 40.0207L5927.23 42.7793C5932.07 37.6981 5939.34 35 5949.39 35V31ZM5924.35 40.0033C5918.55 45.9529 5915.79 54.3206 5915.79 64.8H5919.79C5919.79 55.0127 5922.36 47.7804 5927.22 42.7966L5924.35 40.0033ZM5915.79 64.8V77.6H5919.79V64.8H5915.79ZM5915.79 77.6C5915.79 88.0824 5918.55 96.5033 5924.34 102.579L5927.23 99.8207C5922.35 94.6967 5919.79 87.3842 5919.79 77.6H5915.79ZM5924.35 102.597C5930.18 108.572 5938.65 111.4 5949.39 111.4V107.4C5939.32 107.4 5932.05 104.761 5927.22 99.8034L5924.35 102.597ZM5949.39 111.4C5956.9 111.4 5963.44 109.656 5968.89 106.071L5966.69 102.729C5962 105.81 5956.27 107.4 5949.39 107.4V111.4ZM5968.92 106.051C5974.43 102.276 5977.39 97.3012 5977.39 91.2H5973.39C5973.39 95.7655 5971.27 99.5903 5966.66 102.749L5968.92 106.051ZM5975.39 89.2H5944.19V93.2H5975.39V89.2ZM5946.19 91.2V63.2H5942.19V91.2H5946.19ZM5944.19 65.2H6017.59V61.2H5944.19V65.2ZM6015.59 63.2V140H6019.59V63.2H6015.59ZM6017.59 138H5994.79V142H6017.59V138ZM5996.69 139.384L5992.29 125.784L5988.48 127.016L5992.88 140.616L5996.69 139.384ZM5989.09 124.877C5977 135.169 5961.09 140.4 5941.19 140.4V144.4C5961.81 144.4 5978.71 138.964 5991.68 127.923L5989.09 124.877ZM5941.19 140.4C5918.72 140.4 5902.19 134.557 5891.22 123.21L5888.35 125.99C5900.32 138.376 5918.06 144.4 5941.19 144.4V140.4ZM5891.23 123.218C5880.25 111.723 5874.59 94.5029 5874.59 71.2H5870.59C5870.59 95.0971 5876.39 113.477 5888.34 125.982L5891.23 123.218ZM5874.59 71.2C5874.59 48.2349 5880.94 31.1763 5893.35 19.6661L5890.63 16.7339C5877.16 29.2237 5870.59 47.4984 5870.59 71.2H5874.59ZM5893.35 19.6656C5905.93 7.98015 5923.91 1.99999 5947.59 1.99999V-2.00001C5923.26 -2.00001 5904.17 4.15317 5890.63 16.7344L5893.35 19.6656ZM6137.79 140H6135.79V142H6137.79V140ZM6137.79 87.8H6139.79V85.8H6137.79V87.8ZM6089.19 87.8V85.8H6087.19V87.8H6089.19ZM6089.19 140V142H6091.19V140H6089.19ZM6044.99 140H6042.99V142H6044.99V140ZM6044.99 2.4V0.399995H6042.99V2.4H6044.99ZM6089.19 2.4H6091.19V0.399995H6089.19V2.4ZM6089.19 52.6H6087.19V54.6H6089.19V52.6ZM6137.79 52.6V54.6H6139.79V52.6H6137.79ZM6137.79 2.4V0.399995H6135.79V2.4H6137.79ZM6181.99 2.4H6183.99V0.399995H6181.99V2.4ZM6181.99 140V142H6183.99V140H6181.99ZM6139.79 140V87.8H6135.79V140H6139.79ZM6137.79 85.8H6089.19V89.8H6137.79V85.8ZM6087.19 87.8V140H6091.19V87.8H6087.19ZM6089.19 138H6044.99V142H6089.19V138ZM6046.99 140V2.4H6042.99V140H6046.99ZM6044.99 4.4H6089.19V0.399995H6044.99V4.4ZM6087.19 2.4V52.6H6091.19V2.4H6087.19ZM6089.19 54.6H6137.79V50.6H6089.19V54.6ZM6139.79 52.6V2.4H6135.79V52.6H6139.79ZM6137.79 4.4H6181.99V0.399995H6137.79V4.4ZM6179.99 2.4V140H6183.99V2.4H6179.99ZM6181.99 138H6137.79V142H6181.99V138ZM6396.39 140H6394.39V142H6396.39V140ZM6396.99 71.6L6395 71.4373L6395 71.4562L6394.99 71.4752L6396.99 71.6ZM6398.59 55.2L6400.58 55.4407L6400.58 55.4407L6398.59 55.2ZM6399.59 46.8L6401.58 47.0209L6401.83 44.8H6399.59V46.8ZM6398.79 46.8V44.8H6397.26L6396.86 46.2741L6398.79 46.8ZM6373.39 140V142H6374.92L6375.32 140.526L6373.39 140ZM6338.79 140L6336.86 140.531L6337.27 142H6338.79V140ZM6313.19 47L6315.12 46.4692L6314.71 45H6313.19V47ZM6312.39 47V45H6310.16L6310.4 47.2209L6312.39 47ZM6313.39 55.4L6311.41 55.6407L6311.41 55.6748L6311.41 55.7088L6313.39 55.4ZM6315.19 71.6L6313.2 71.7627L6313.2 71.7661L6315.19 71.6ZM6315.99 140V142H6317.99V140H6315.99ZM6275.39 140H6273.39V142H6275.39V140ZM6275.39 2.4V0.399995H6273.39V2.4H6275.39ZM6337.79 2.4L6339.73 1.89317L6339.33 0.399995H6337.79V2.4ZM6358.59 81.8L6356.66 82.3068L6357.05 83.8H6358.59V81.8ZM6359.39 81.8V83.8H6360.94L6361.33 82.3023L6359.39 81.8ZM6379.99 2.4V0.399995H6378.44L6378.05 1.89773L6379.99 2.4ZM6440.19 2.4H6442.19V0.399995H6440.19V2.4ZM6440.19 140V142H6442.19V140H6440.19ZM6398.39 140V90.4H6394.39V140H6398.39ZM6398.39 90.4C6398.39 84.3101 6398.59 78.0851 6398.99 71.7248L6394.99 71.4752C6394.59 77.9149 6394.39 84.2232 6394.39 90.4H6398.39ZM6398.98 71.7627C6399.52 65.2444 6400.05 59.8057 6400.58 55.4407L6396.61 54.9593C6396.07 59.3943 6395.53 64.8889 6395 71.4373L6398.98 71.7627ZM6400.58 55.4407C6401.11 51.0438 6401.44 48.2329 6401.58 47.0209L6397.6 46.5791C6397.47 47.7671 6397.14 50.5562 6396.61 54.9593L6400.58 55.4407ZM6399.59 44.8H6398.79V48.8H6399.59V44.8ZM6396.86 46.2741L6371.46 139.474L6375.32 140.526L6400.72 47.3259L6396.86 46.2741ZM6373.39 138H6338.79V142H6373.39V138ZM6340.72 139.469L6315.12 46.4692L6311.26 47.5308L6336.86 140.531L6340.72 139.469ZM6313.19 45H6312.39V49H6313.19V45ZM6310.4 47.2209C6310.54 48.4329 6310.87 51.2438 6311.41 55.6407L6315.38 55.1593C6314.84 50.7562 6314.51 47.9671 6314.38 46.7791L6310.4 47.2209ZM6311.41 55.7088C6312.07 59.9091 6312.67 65.2561 6313.2 71.7627L6317.18 71.4373C6316.65 64.8773 6316.04 59.4243 6315.37 55.0912L6311.41 55.7088ZM6313.2 71.7661C6313.73 78.1134 6313.99 84.3246 6313.99 90.4H6317.99C6317.99 84.2087 6317.72 77.8866 6317.18 71.4339L6313.2 71.7661ZM6313.99 90.4V140H6317.99V90.4H6313.99ZM6315.99 138H6275.39V142H6315.99V138ZM6277.39 140V2.4H6273.39V140H6277.39ZM6275.39 4.4H6337.79V0.399995H6275.39V4.4ZM6335.86 2.90682L6356.66 82.3068L6360.53 81.2932L6339.73 1.89317L6335.86 2.90682ZM6358.59 83.8H6359.39V79.8H6358.59V83.8ZM6361.33 82.3023L6381.93 2.90226L6378.05 1.89773L6357.45 81.2977L6361.33 82.3023ZM6379.99 4.4H6440.19V0.399995H6379.99V4.4ZM6438.19 2.4V140H6442.19V2.4H6438.19ZM6440.19 138H6396.39V142H6440.19V138ZM6469.06 140H6467.06V142H6469.06V140ZM6469.06 2.4V0.399995H6467.06V2.4H6469.06ZM6513.26 2.4H6515.26V0.399995H6513.26V2.4ZM6513.26 140V142H6515.26V140H6513.26ZM6471.06 140V2.4H6467.06V140H6471.06ZM6469.06 4.4H6513.26V0.399995H6469.06V4.4ZM6511.26 2.4V140H6515.26V2.4H6511.26ZM6513.26 138H6469.06V142H6513.26V138ZM6544.79 2.4V0.399995H6542.79V2.4H6544.79ZM6588.99 2.4H6590.99V0.399995H6588.99V2.4ZM6588.99 104.8H6586.99V106.8H6588.99V104.8ZM6659.59 104.8H6661.59V102.8H6659.59V104.8ZM6659.59 140V142H6661.59V140H6659.59ZM6544.79 140H6542.79V142H6544.79V140ZM6544.79 4.4H6588.99V0.399995H6544.79V4.4ZM6586.99 2.4V104.8H6590.99V2.4H6586.99ZM6588.99 106.8H6659.59V102.8H6588.99V106.8ZM6657.59 104.8V140H6661.59V104.8H6657.59ZM6659.59 138H6544.79V142H6659.59V138ZM6546.79 140V2.4H6542.79V140H6546.79ZM6678.19 2.4V0.399995H6676.19V2.4H6678.19ZM6797.19 2.4H6799.19V0.399995H6797.19V2.4ZM6797.19 35.4V37.4H6799.19V35.4H6797.19ZM6722.39 35.4V33.4H6720.39V35.4H6722.39ZM6722.39 54.4H6720.39V56.4H6722.39V54.4ZM6786.39 54.4H6788.39V52.4H6786.39V54.4ZM6786.39 86V88H6788.39V86H6786.39ZM6722.39 86V84H6720.39V86H6722.39ZM6722.39 107H6720.39V109H6722.39V107ZM6798.59 107H6800.59V105H6798.59V107ZM6798.59 140V142H6800.59V140H6798.59ZM6678.19 140H6676.19V142H6678.19V140ZM6678.19 4.4H6797.19V0.399995H6678.19V4.4ZM6795.19 2.4V35.4H6799.19V2.4H6795.19ZM6797.19 33.4H6722.39V37.4H6797.19V33.4ZM6720.39 35.4V54.4H6724.39V35.4H6720.39ZM6722.39 56.4H6786.39V52.4H6722.39V56.4ZM6784.39 54.4V86H6788.39V54.4H6784.39ZM6786.39 84H6722.39V88H6786.39V84ZM6720.39 86V107H6724.39V86H6720.39ZM6722.39 109H6798.59V105H6722.39V109ZM6796.59 107V140H6800.59V107H6796.59ZM6798.59 138H6678.19V142H6798.59V138ZM6680.19 140V2.4H6676.19V140H6680.19ZM6981.93 140H6979.93V142H6981.93V140ZM6981.93 87.8H6983.93V85.8H6981.93V87.8ZM6933.33 87.8V85.8H6931.33V87.8H6933.33ZM6933.33 140V142H6935.33V140H6933.33ZM6889.13 140H6887.13V142H6889.13V140ZM6889.13 2.4V0.399995H6887.13V2.4H6889.13ZM6933.33 2.4H6935.33V0.399995H6933.33V2.4ZM6933.33 52.6H6931.33V54.6H6933.33V52.6ZM6981.93 52.6V54.6H6983.93V52.6H6981.93ZM6981.93 2.4V0.399995H6979.93V2.4H6981.93ZM7026.13 2.4H7028.13V0.399995H7026.13V2.4ZM7026.13 140V142H7028.13V140H7026.13ZM6983.93 140V87.8H6979.93V140H6983.93ZM6981.93 85.8H6933.33V89.8H6981.93V85.8ZM6931.33 87.8V140H6935.33V87.8H6931.33ZM6933.33 138H6889.13V142H6933.33V138ZM6891.13 140V2.4H6887.13V140H6891.13ZM6889.13 4.4H6933.33V0.399995H6889.13V4.4ZM6931.33 2.4V52.6H6935.33V2.4H6931.33ZM6933.33 54.6H6981.93V50.6H6933.33V54.6ZM6983.93 52.6V2.4H6979.93V52.6H6983.93ZM6981.93 4.4H7026.13V0.399995H6981.93V4.4ZM7024.13 2.4V140H7028.13V2.4H7024.13ZM7026.13 138H6981.93V142H7026.13V138ZM7057.73 140H7055.73V142H7057.73V140ZM7057.73 2.4V0.399995H7055.73V2.4H7057.73ZM7101.93 2.4H7103.93V0.399995H7101.93V2.4ZM7101.93 140V142H7103.93V140H7101.93ZM7059.73 140V2.4H7055.73V140H7059.73ZM7057.73 4.4H7101.93V0.399995H7057.73V4.4ZM7099.93 2.4V140H7103.93V2.4H7099.93ZM7101.93 138H7057.73V142H7101.93V138ZM7238.26 6L7237.55 7.86972L7237.55 7.86972L7238.26 6ZM7263.26 23.8L7261.69 25.0297L7261.7 25.0446L7261.71 25.0592L7263.26 23.8ZM7272.66 52.2V54.2H7274.66V52.2H7272.66ZM7230.46 52.2H7228.46V54.2H7230.46V52.2ZM7222.86 38.4L7221.71 40.0304L7221.72 40.0406L7221.73 40.0506L7222.86 38.4ZM7180.86 41.4L7182.3 42.7966L7182.3 42.788L7182.31 42.7793L7180.86 41.4ZM7180.86 101.2L7179.42 102.579L7179.42 102.588L7179.43 102.597L7180.86 101.2ZM7222.86 104.4L7223.96 106.071L7223.98 106.061L7223.99 106.051L7222.86 104.4ZM7230.46 91.2H7232.46V89.2H7230.46V91.2ZM7199.26 91.2H7197.26V93.2H7199.26V91.2ZM7199.26 63.2V61.2H7197.26V63.2H7199.26ZM7272.66 63.2H7274.66V61.2H7272.66V63.2ZM7272.66 140V142H7274.66V140H7272.66ZM7249.86 140L7247.96 140.616L7248.41 142H7249.86V140ZM7245.46 126.4L7247.37 125.784L7246.45 122.938L7244.17 124.877L7245.46 126.4ZM7144.86 124.6L7143.42 125.982L7143.43 125.99L7144.86 124.6ZM7147.06 18.2L7148.42 19.6661L7148.42 19.6656L7147.06 18.2ZM7202.66 1.99999C7215.66 1.99999 7227.28 3.96925 7237.55 7.86972L7238.97 4.13027C7228.18 0.0307389 7216.07 -2.00001 7202.66 -2.00001V1.99999ZM7237.55 7.86972C7247.79 11.757 7255.81 17.4878 7261.69 25.0297L7264.84 22.5703C7258.45 14.3789 7249.8 8.24298 7238.97 4.13027L7237.55 7.86972ZM7261.71 25.0592C7267.65 32.3918 7270.66 41.3977 7270.66 52.2H7274.66C7274.66 40.6023 7271.41 30.6749 7264.82 22.5408L7261.71 25.0592ZM7272.66 50.2H7230.46V54.2H7272.66V50.2ZM7232.46 52.2C7232.46 45.7531 7229.56 40.5576 7223.99 36.7494L7221.73 40.0506C7226.3 43.1757 7228.46 47.1803 7228.46 52.2H7232.46ZM7224.02 36.7696C7218.57 32.8926 7212.01 31 7204.46 31V35C7211.32 35 7217.03 36.7074 7221.71 40.0304L7224.02 36.7696ZM7204.46 31C7193.71 31 7185.24 33.9019 7179.42 40.0207L7182.31 42.7793C7187.15 37.6981 7194.42 35 7204.46 35V31ZM7179.43 40.0033C7173.63 45.9529 7170.86 54.3206 7170.86 64.8H7174.86C7174.86 55.0127 7177.43 47.7804 7182.3 42.7966L7179.43 40.0033ZM7170.86 64.8V77.6H7174.86V64.8H7170.86ZM7170.86 77.6C7170.86 88.0824 7173.63 96.5033 7179.42 102.579L7182.31 99.8207C7177.43 94.6967 7174.86 87.3842 7174.86 77.6H7170.86ZM7179.43 102.597C7185.26 108.572 7193.73 111.4 7204.46 111.4V107.4C7194.4 107.4 7187.13 104.761 7182.3 99.8034L7179.43 102.597ZM7204.46 111.4C7211.98 111.4 7218.51 109.656 7223.96 106.071L7221.76 102.729C7217.08 105.81 7211.35 107.4 7204.46 107.4V111.4ZM7223.99 106.051C7229.51 102.276 7232.46 97.3012 7232.46 91.2H7228.46C7228.46 95.7655 7226.35 99.5903 7221.73 102.749L7223.99 106.051ZM7230.46 89.2H7199.26V93.2H7230.46V89.2ZM7201.26 91.2V63.2H7197.26V91.2H7201.26ZM7199.26 65.2H7272.66V61.2H7199.26V65.2ZM7270.66 63.2V140H7274.66V63.2H7270.66ZM7272.66 138H7249.86V142H7272.66V138ZM7251.77 139.384L7247.37 125.784L7243.56 127.016L7247.96 140.616L7251.77 139.384ZM7244.17 124.877C7232.07 135.169 7216.17 140.4 7196.26 140.4V144.4C7216.89 144.4 7233.79 138.964 7246.76 127.923L7244.17 124.877ZM7196.26 140.4C7173.79 140.4 7157.27 134.557 7146.3 123.21L7143.43 125.99C7155.39 138.376 7173.13 144.4 7196.26 144.4V140.4ZM7146.31 123.218C7135.33 111.723 7129.66 94.5029 7129.66 71.2H7125.66C7125.66 95.0971 7131.47 113.477 7143.42 125.982L7146.31 123.218ZM7129.66 71.2C7129.66 48.2349 7136.02 31.1763 7148.42 19.6661L7145.7 16.7339C7132.24 29.2237 7125.66 47.4984 7125.66 71.2H7129.66ZM7148.42 19.6656C7161.01 7.98015 7178.99 1.99999 7202.66 1.99999V-2.00001C7178.34 -2.00001 7159.25 4.15317 7145.7 16.7344L7148.42 19.6656ZM7392.87 140H7390.87V142H7392.87V140ZM7392.87 87.8H7394.87V85.8H7392.87V87.8ZM7344.27 87.8V85.8H7342.27V87.8H7344.27ZM7344.27 140V142H7346.27V140H7344.27ZM7300.07 140H7298.07V142H7300.07V140ZM7300.07 2.4V0.399995H7298.07V2.4H7300.07ZM7344.27 2.4H7346.27V0.399995H7344.27V2.4ZM7344.27 52.6H7342.27V54.6H7344.27V52.6ZM7392.87 52.6V54.6H7394.87V52.6H7392.87ZM7392.87 2.4V0.399995H7390.87V2.4H7392.87ZM7437.07 2.4H7439.07V0.399995H7437.07V2.4ZM7437.07 140V142H7439.07V140H7437.07ZM7394.87 140V87.8H7390.87V140H7394.87ZM7392.87 85.8H7344.27V89.8H7392.87V85.8ZM7342.27 87.8V140H7346.27V87.8H7342.27ZM7344.27 138H7300.07V142H7344.27V138ZM7302.07 140V2.4H7298.07V140H7302.07ZM7300.07 4.4H7344.27V0.399995H7300.07V4.4ZM7342.27 2.4V52.6H7346.27V2.4H7342.27ZM7344.27 54.6H7392.87V50.6H7344.27V54.6ZM7394.87 52.6V2.4H7390.87V52.6H7394.87ZM7392.87 4.4H7437.07V0.399995H7392.87V4.4ZM7435.07 2.4V140H7439.07V2.4H7435.07ZM7437.07 138H7392.87V142H7437.07V138Z" fill="#737373" mask="url(#path-1-inside-1_163_165)"/>
</svg>
