<svg width="100" height="36" viewBox="0 0 100 36" fill="none" xmlns="http://www.w3.org/2000/svg">
<path d="M79.41 13.2084C88.3045 15.1103 91.3434 20.2837 91.3434 20.2837C85.6361 13.5127 76.6675 14.5778 73.2579 14.0452C68.5883 13.3605 54.283 13.1323 54.283 13.1323C58.5079 13.9692 60.5833 15.1864 60.5833 15.1864C49.8358 12.4476 36.2717 14.5778 36.2717 14.5778C35.3081 10.2413 31.5279 4.38329 31.5279 4.38329C25.45 1.188 12.553 10.8499 12.553 10.8499C14.4801 11.839 20.1875 12.5237 20.1875 12.5237C-1.45582 9.78485 0.693679 28.5001 0.693679 28.5001C-1.15934 22.4899 1.28665 16.0233 1.28665 16.0233C4.54796 13.1323 9.43994 11.4586 9.43994 11.4586C19.891 2.32917 28.4149 1.94878 28.4149 1.94878C50.7993 -2.15945 61.3245 3.77466 61.3245 3.77466C53.0971 -0.0292609 34.3445 3.31819 34.3445 3.31819L39.2365 12.2954C58.3597 11.3064 72.665 12.6758 72.665 12.6758C83.7831 11.3064 90.454 14.1213 90.454 14.1213C84.6726 12.6758 79.41 13.2084 79.41 13.2084ZM99.4967 27.9676C100.238 27.435 99.9414 26.9786 99.9414 26.9786L80.67 27.8915C59.4715 28.5001 51.6147 25.7613 51.6147 25.7613C53.6901 31.6954 99.4967 27.9676 99.4967 27.9676ZM6.77158 17.4688C6.77158 17.4688 12.9236 21.5009 11.96 28.2719L35.234 32.0758L13.6648 27.3589C13.6648 27.435 13.2201 20.4358 6.77158 17.4688ZM65.1047 18.0013C65.1047 18.0013 68.5883 19.675 72.5909 22.1095C76.5934 24.5441 91.714 22.9464 91.714 22.9464C91.714 22.9464 76.5934 23.4029 73.925 21.7292C71.1826 20.1315 65.1047 18.0013 65.1047 18.0013Z" fill="white"/>
<path d="M64.66 22.0334C63.9929 23.0224 60.5833 23.2507 57.7668 21.3487C54.9502 19.4468 52.8748 17.5448 54.5054 15.1103C55.469 13.5887 58.5821 13.893 61.3987 15.795C64.2153 17.6209 65.6977 20.5119 64.66 22.0334ZM89.8611 14.0452C90.2317 18.0774 97.1249 22.0334 97.0508 21.8813C96.2355 15.1864 89.8611 14.0452 89.8611 14.0452Z" fill="white"/>
<path d="M62.4362 22.1095C60.9538 22.1095 59.3973 21.5769 58.1372 20.7401C54.7276 18.3816 53.8382 17.0122 54.95 15.3385C55.3206 14.7299 56.1359 14.6538 56.6548 14.6538C57.9148 14.6538 59.6196 15.2624 61.102 16.2515C62.9551 17.4687 64.2151 19.1424 64.5116 20.5118C64.5857 20.9683 64.5116 21.3487 64.3633 21.5769C64.141 21.8052 63.548 22.1095 62.4362 22.1095Z" fill="white"/>
<path d="M96.5318 21.2726C96.5318 21.3487 90.7504 18.0773 90.4539 14.6538C90.3797 14.6538 95.8647 15.6428 96.5318 21.2726Z" fill="white"/>
</svg>
